<?xml version="1.0" encoding="UTF-8"?>
<!-- Created with Inkscape (http://www.inkscape.org/) -->
<svg width="167.62mm" height="70.227mm" version="1.1" viewBox="0 0 167.62 70.227" xmlns="http://www.w3.org/2000/svg" xmlns:cc="http://creativecommons.org/ns#" xmlns:dc="http://purl.org/dc/elements/1.1/" xmlns:rdf="http://www.w3.org/1999/02/22-rdf-syntax-ns#">
 <metadata>
  <rdf:RDF>
   <cc:Work rdf:about="">
    <dc:format>image/svg+xml</dc:format>
    <dc:type rdf:resource="http://purl.org/dc/dcmitype/StillImage"/>
    <dc:title/>
   </cc:Work>
  </rdf:RDF>
 </metadata>
 <g transform="translate(-179.09 -38.373)">
  <g transform="translate(-37.57 -37.28)">
   <flowRoot transform="matrix(.26458 0 0 .26458 -4.2763 37.418)" fill="#000" font-family="sans-serif" font-size="192px" letter-spacing="0px" word-spacing="0px" style="line-height:1.25" xml:space="preserve"><flowRegion fill="#000" font-size="192px"><rect x="-949.54" y="-255.33" width="1996.1" height="581.85" fill="#000"/></flowRegion><flowPara/></flowRoot>
   <flowRoot transform="matrix(.26458 0 0 .26458 -4.2763 37.418)" fill="#000000" font-family="sans-serif" font-size="40px" letter-spacing="0px" word-spacing="0px" style="line-height:1.25" xml:space="preserve"><flowRegion><rect x="-598.01" y="233.59" width="1442.5" height="197.99"/></flowRegion><flowPara/></flowRoot>
   <g transform="translate(7.7074 -3.0198)" stroke-width=".084667">
    <path d="m338.36 147.81c-0.25611-0.0104-0.98302-0.0869-1.6815-0.16161-1.0563-0.11298-2.096-0.11809-6.0044-0.0888-2.5844 0.0194-4.8012-0.0877-4.8884-0.0685-0.12122 0.0266-0.0504-0.0759-0.26078-0.46453-0.17258-0.31881-0.40792-0.6262-0.63192-0.78556l-0.43958-0.0649-1.7977-0.30586c-0.95044 0.0292-1.7703-0.0138-2.6222-0.0514-0.39729-0.0165-1.0824-0.14937-1.6667-0.20856-0.8185 0.13775-0.99578 0.18854-1.3378-0.56568-0.24363-0.53731-0.51208-0.82132-1.1884-1.108-0.5355-0.37784-1.0257-0.79802-1.5636-1.0639-1.2127-0.59569-1.2754-0.57773-1.7303-1.4208-0.48675-0.90204-0.92165-1.3539-1.1601-1.5546-0.13737-0.11558-0.38788-0.41818-0.54227-0.75906-0.43049-0.61284-0.30144-0.85592-0.28458-1.5227-0.0114-0.44558 0.13262-0.62926 0.43127-0.5501 0.19626 0.052 0.98931-0.0621 1.4882-0.21422 0.22477-0.0685 0.31106-0.0587 0.43 0.0489 0.0818 0.0741 0.18777 0.13466 0.23541 0.13466 0.43284-0.28538 1.0145-1.2452 1.1215-0.38787 0.33766 0.28034 0.57443 0.19787 0.67404-0.15293 0.12416-0.0379 0.15647-0.20539 0.39673-0.13018 2.4059 0.90016-4e-3 0.5853 1.6374 0.54244 1.0596 9e-3 -0.10167 0.30633 0.68386 0.29668 0.11885 0.0284 0.22428 0.12288 0.24106 0.21606 0.0472 0.26212 0.1399 0.3085 0.38936 0.19484 0.2096-0.0955 0.2472-0.0863 0.38325 0.0941l0.15085 0.19998 0.30088-0.18595c0.2073-0.12813 0.36859-0.16896 0.51863-0.1313 0.17001 0.0427 0.21775 0.0231 0.21775-0.0894 0-0.0793 0.0744-0.16357 0.16539-0.18736 0.091-0.0238 0.2252-0.13452 0.29829-0.24607 0.0731-0.11155 0.18916-0.20283 0.25795-0.20283 0.0688 0 0.12504-0.0344 0.12504-0.0764 0-0.12049 1.0286-0.42546 1.4817-0.4393 0.39047-0.0119 1.1723 0.15204 1.4954 0.3136 0.3484 0.17423 0.74826 0.57873 0.74826 0.75693 0 0.0347 0.12856 0.1879 0.28568 0.34049 0.21536 0.20916 0.30965 0.25347 0.38308 0.18004 0.0536-0.0536 0.23935-0.10436 0.41283-0.11286 0.40287-0.0197 1.1882-0.21428 1.4452-0.35802 0.13192-0.0738 0.18462-0.16403 0.15713-0.26914-0.0227-0.087 0.0106-0.2266 0.074-0.31025 0.0634-0.0837 0.11656-0.21214 0.11804-0.28551 1e-3 -0.0734 0.0959-0.22099 0.20985-0.32803 0.11393-0.10703 0.21873-0.2756 0.23288-0.37459 0.0211-0.14742 0.0762-0.17599 0.30481-0.15795 0.15349 0.0121 0.34766-0.0147 0.43148-0.0595 0.0838-0.0449 0.1868-0.0493 0.22887-0.01 0.0421 0.0395 0.29702 0.0408 0.5666 3e-3 0.47162-0.0663 0.90031-5e-3 1.1056 0.15681 0.24744 0.19563 0.73578 0.28409 1.0103 0.18301 0.14994-0.0552 0.62825-0.11711 1.0629-0.13756 0.7356-0.0346 0.79332-0.0255 0.83458 0.13231 0.4067 0.36295 1.37 0.48601 1.7759 0.37869 0.55136-0.16593 0.79023-0.15454 0.79023 0.0377 0 0.0859 0.0803 0.22879 0.17835 0.3175 0.33383 0.45978 0.58554 0.8257 1.0545 0.53395 0.10509-0.17003 0.29118-0.0702 0.2916 0.15651 0.11659 0.42251 0.3665 0.80844 0.61659 0.508 1.0198-0.42798 0.86669 0.22065 0.99473 0.40325 0.10203 0.0324 0.19286 0.15509 0.22177 0.29961 0.91353-0.7286 1.417-0.55283 1.7676-0.43771-0.0406 0.1279 0 0.16683 0.20757 0.19724 1.8311-0.79477 1.266 0.27445 2.0744-0.23476 0.16251-0.12395 0.34943-0.20466 0.41538-0.17935 0.0659 0.0253 0.18655-0.0276 0.26799-0.11761 0.0815-0.09 0.23608-0.16363 0.34364-0.16363 0.10892 0 0.23572-0.075 0.28619-0.16933 0.0526-0.0983 0.17728-0.16933 0.2972-0.16933 0.18225 0 0.20085-0.0286 0.158-0.24281-0.0427-0.21356-0.0169-0.25384 0.21412-0.33438 0.27414-0.0956 0.66444-0.63687 0.61485-0.85276 0.27561-0.5742 0.8483-1.0689 1.0939-1.5847 0.13322-0.28435 0.2997-0.5647 0.36996-0.62301 0.20324-0.16867 0.41948-0.95786 0.33997-1.2407-0.0853-0.30342-0.083-0.29668-0.16378-0.48079-0.0367-0.0837-0.0457-0.30986-0.0198-0.50255 0.0294-0.21894 3e-3 -0.43485-0.0695-0.57566-0.0499-0.36486-0.16926-0.61961-0.29489-0.92203-0.20578-0.54917-0.38134-1.0661-0.66752-1.5796-0.0933-0.11866-0.1494-0.2687-0.12456-0.33342 0.0248-0.0647-0.0154-0.20411-0.0894-0.30977-0.074-0.10565-0.13455-0.26116-0.13455-0.34557 0-0.0844-0.0529-0.23786-0.1175-0.34099-0.0646-0.10314-0.14396-0.33993-0.1763-0.52619-0.0323-0.18627-0.16997-0.53381-0.30583-0.77231-0.13587-0.2385-0.24787-0.5433-0.2489-0.67733-1e-3 -0.13403-0.0772-0.40978-0.16933-0.61277-0.0921-0.203-0.16737-0.4316-0.16723-0.508 0-0.12297-0.2348-0.67377-0.43857-1.0279-0.40759-0.70838-0.45904-1.5077-0.13961-2.169 0.15967-0.33057 0.20169-0.66317-0.16977-0.68355-0.78563-0.0431-2.7061-0.38131-2.8601-0.48846-0.0466-0.0324-0.53352-0.15943-1.0923-0.33334s-1.0755-0.35577-1.1686-0.39392c-1.8201-0.74551-2.3165-0.96198-3.2588-1.5192l-0.7932-0.38121-0.37085 0.42053c-0.50103 0.63399-0.56204 0.45691-0.81741 0.39384-0.51024-0.126-0.83093-0.39454-1.2079-1.0269-0.10044-0.16848-0.38307-0.28928-0.38307-0.36033 0-0.10767-0.0959-0.24072-0.36679-0.17198-0.24764 0.0629-0.39761-0.0187-0.63087-0.11613-0.24052-0.1005-0.3683-0.0955-0.56427-0.0215-0.22177 0.0837-0.37807-0.0884-0.80629-0.34676-0.5728-0.34555-1.1984-0.88828-1.1984-1.0476 0-0.15125-0.88734-0.99229-1.1315-1.0536-0.14368-0.0361-0.38815 0.12982-0.53547 0.30106-0.18483 0.21488-0.30061-0.11092-0.57012-0.20127-0.32665-0.10949-0.47466-0.43837-0.5452-0.81787-0.0236-0.12679-0.14888-0.3616-0.17738-0.53622l-0.17002-0.3175-0.49481-0.0344c-0.53715 1e-3 -1.4984 0.23332-1.9838 0.44689-0.39572 0.1741-0.31352 0.51653 0.0294 1.3564 0.038 0.0931 0.11782 0.29826 0.17732 0.45583 0.14971 0.39648 0.72306 1.1023 0.97243 1.1971 0.11356 0.0432 0.20648 0.14024 0.20648 0.2157 0 0.0755 0.0707 0.23832 0.15699 0.36193 0.0863 0.1236 0.18231 0.32951 0.21328 0.45757 0.0421 0.17432 0.10776 0.23283 0.26112 0.23283 0.11265 0 0.37619 0.10477 0.58565 0.23283 0.3577 0.21869 0.38452 0.26114 0.44136 0.6985 0.0333 0.25612 0.019 0.78952-0.0318 1.1853-0.0508 0.39581-0.0937 0.77681-0.0954 0.84666-2e-3 0.0699-0.11207 0.32351-0.15337 0.53306-0.15606 0.79107-0.34883 0.85314-0.64149 0.67036-0.14617-0.0913-0.26756 0.11935-0.39657 0.44335-0.29787 0.74799-0.69429 1.4862-0.91422 1.6451-0.21476 0.15514-0.23168 0.15063-0.43351 0.0184-0.11784-0.0772-0.15632-0.32994-0.279-0.58927s-0.30915-0.55759-0.4654-0.71384c-0.15626-0.15626-0.31039-0.39989-0.34253-0.53121-0.0321-0.13131-0.11207-0.40495-0.19806-0.56724-0.086-0.1623-0.16469-0.39061-0.16469-0.48696 0-0.16993-0.31507-0.66806-0.70015-1.1445-0.12573-0.15555-0.27538-0.35081-0.31556-0.70353-0.0788-0.69183-0.42078-3.5781-0.49388-3.78-0.0312-0.0862-0.20873-0.2808-0.28866-0.39722-0.0799-0.11642-0.14674-0.38113-0.17909-0.61888-0.0824-0.60566 0.23409-1.9232 0.60185-2.2509 0.13801-0.12296 0.19245-0.29801 0.19245-0.35837 0-0.29237 1.0834-1.0743 1.4885-1.0743 0.15374 0 0.30244-0.0371 0.33045-0.0824 0.028-0.0453 0.19218-0.14398 0.36483-0.21925 0.67739-0.29531 1.1107-0.56998 1.4943-0.94718 0.10654-0.10478 0.28197-0.13352 0.33398-0.1905 0.21564-0.23624 0.65952-0.25882 0.24798-0.9534-0.34204-0.78803-0.39187-1.0473-0.43717-1.9794-0.0609-1.2531 0.11535-2.2833 0.47297-2.8646 0.0709-0.43693 0.25917-0.77308 0.47219-1.0822 0.54943-0.79527 0.86865-1.0296 0.94762-2.7588 0.0875-0.88585 0.38982-2.3908 0.56925-2.8993 0.06-0.17016 0.22107-0.79216 0.22107-0.79216 0.0534-0.31576-0.10448-0.36622-0.25815-0.47381-0.50297-0.49822-0.86122-1.1802-1.2804-1.648l-0.38238-0.42333-0.24696 0.13646c-0.21504 0.11883-0.27605 0.12121-0.47215 0.01846-0.28753-0.15065-0.28527-0.30728 8e-3 -0.52765l0.23283-0.17518-0.42333-0.38457c-0.23284-0.21151-0.58753-0.53591-0.78821-0.72088-0.43142-0.39766-0.676-0.42442-1.1591-0.12686-0.38768 0.23878-0.6996 0.26862-0.93632 0.08957-0.0904-0.06837-0.27031-0.12552-0.39983-0.127-0.12952-0.0015-0.25649-0.05741-0.28216-0.1243-0.0257-0.06688-0.31218-0.30137-0.6367-0.52108-0.65946-0.44648-0.54805-0.85594-0.54659-1.1695 1e-3 -0.3152 0.1741-1.1977 0.30974-1.4157 0.12535-0.20152 1.0235-0.88475 1.3296-1.0446 1.0322-1.3674 1.2065-0.51789 2.0376-0.93021 0.53181-0.27456 1.1391-0.81291 1.3338-1.031 0.354-0.39662 1.4787-1.157 2.4425-1.6675 1.2052-0.63831 1.5254-1.0142 1.9092-1.6593 0.29136-0.48977 0.73861-0.83102 0.93303-0.83702 0.0566-0.0017 7e-3 -0.05901 0.22778-0.19871 0.54345-0.34465 0.5552-0.25994 0.52478-0.0923-0.0461 0.18973 0.23587 0.32554 0.42271 0.25789 0.25876-0.09369 1.0904-0.05782 1.1985 0.05024 0.0831 0.08307 0.0945 0.51418-0.0902 1.0996-0.0441 0.13978-0.0455 0.30297-3e-3 0.38172 0.0506 0.09448-3e-3 0.29173-0.17143 0.62981-0.231 0.46404-0.33793 0.61502-0.21709 0.84869 0.11775 0.2277 0.29074 0.27293 0.71145 0.27293 0.2519 0 0.5625-0.04809 0.69026-0.09666 0.12774-0.04857 0.6227-0.06417 1.1203-0.08571 0.95833-0.04148 1.1268 0.08853 1.5892 0.45231 0.34856 0.27421 0.76694 0.30778 1.4307 0.36388 0.63254 0.05347 0.9817 8e-3 0.78941 0.27117-0.0723 0.22246-0.19491 0.37438-0.34305 0.51019-0.24 0.14177-0.68616 0.11155-0.56347 0.35749 0.0695 0.1393 0.39455 0.41195 0.43651 0.41195 0.042 0 0.26903 0.22288 0.34127 0.36258 0.0722 0.1397 0.15656 0.22894 0.21799 0.22894 0.0614 0 0.18066 0.10126 0.26495 0.19439 0.0843 0.09313 0.20897 0.26121 0.25666 0.26121 0.0477 0 0.1531 0.04445 0.30572 0.21108 0.25537 0.2788 0.1413 0.30935 0.17927 0.93271 9e-3 0.14932 0.28038 0.40915 0.52919 0.40953 0.11341 1.69e-4 0.45081 0.10608 0.55582 0.20472 0.26045 0.17132 0.28911 0.17322 0.16286 0.44099-0.47088 0.35207-0.86915 0.1778-1.3578 0.03298-0.1992-0.09186-0.39389-0.13605-0.43264-0.09819-0.0756 0.07387-0.12573 0.45252-0.0117 0.45252 0.1006 0 0.7186 0.66014 0.71907 0.77354-0.20046 0.01147 0.0804 0.0928 0.14752 0.11856 0.0671 0.02576 0.0869 0.12108 0.16643 0.24244 0.13853 0.21143 0.15358 0.18094-0.0227 0.41933-0.27026 0.36553-0.28233 0.81925-0.0971 1.0988 0.0852 0.1286 0.12999 0.38988 0.14029 0.52958s-0.0518 0.18588 5e-3 0.38845c0.0845 0.3018 0.0324 0.38109-0.0615 0.43908-0.0951 0.05876 0.0626 0.27611 0.15269 0.62704 0.13444 0.52455 0.27596 0.72065-0.11072 0.7774-0.22343 0.03279-0.31867-0.0055-0.50198-0.20171-0.12443-0.1332-0.29907-0.24218-0.38809-0.24218-0.089 0-0.27137-0.1143-0.40521-0.254s-0.29337-0.254-0.3545-0.254c-0.13152 0-0.32383 0.25918-0.2001 0.38288 0.0475 0.04754 0.11043 0.37683 0.13977 0.69092l0.13683 0.58778 0.36263 0.45563c0.23745 0.1362 0.52926 0.14019 0.59462 0.14069 0.18348 0.0012 0.9748 0.37806 1.0504 0.50572 0.0933 0.15752 1.2153 0.13911 1.4868 0.01544 0.28486-0.12979 0.27345-0.38235-0.0414-0.91635-0.18899-0.32054-0.254-0.53689-0.254-0.8454 0-0.22804 0.0381-0.43816 0.0847-0.46694 0.13546-0.08372 0.0995-0.87235-0.0502-1.1008-0.0911-0.13907-0.14759-0.47461-0.17402-1.0342-0.0215-0.45558-0.0544-0.87464-0.073-0.93125-0.0417-0.12655 0.51402-0.9694 0.70728-1.0728 0.43395-0.23218 0.67657-0.70798 0.43663-0.85627-0.0466-0.02878-0.0853-0.15485-0.086-0.28016-2e-3 -0.32082-0.0739-0.39731-0.5067-0.53771-0.34023-0.11037-0.40818-0.17804-0.635-0.6324-0.1397-0.27984-0.35878-0.63291-0.48683-0.7846-0.21703-0.25706-0.24755-0.37434-0.27773-1.0671-0.0199-0.45729-0.22176-1.0407-0.42663-1.2332-0.17984-0.16895-0.25898-0.18335-0.7537-0.13715-0.55944 0.05224-0.66366 0.0014-0.41695-0.20333 0.0747-0.062 0.16907-0.20022 0.20974-0.30715 0.0407-0.10694 0.20814-0.25844 0.37218-0.33666 0.21126-0.10074 0.29825-0.19803 0.29825-0.33352 0-0.10521 0.13335-0.48391 0.29634-0.84156 0.16298-0.35764 0.29633-0.69652 0.29633-0.75306 0-0.11469 0.41067-0.51094 0.85111-1.0223 0.31763-0.36874 0.85366-0.58141 1.4461-0.73419 0.20877-0.05384 0.3836-0.1638 0.5834-0.26603l0.41562-0.26229 0.37349 0.2443c0.23097 0.12806 0.50703 0.2978 0.62067 0.2978 0.11365 0 0.2597 0.03219 0.28847 0.07876 0.0288 0.04657 0.068 0.17916 0.15212 0.17916 0.21095 0 0.84054 0.44166 1.1405 0.86792 0.34172 0.48554 0.61632 1.4001 0.68208 2.424 0.051 0.79434 0.0879 0.82111-0.0867 1.117-0.16956 0.28738-0.20206 0.43046-0.10882 0.71283 0.0572 0.17338 0.11002 0.4033 0.0813 0.54702-0.0437 0.21826-0.0808 0.35638 0.16552 0.6287 0.18078 0.20009 0.25912 0.37761 0.25912 0.51584 0 0.12388 0.10716 0.41721 0.17312 0.44253 0.15125 0.05804 0.49831 0.53504 0.49831 0.70304 0 0.06927 0.0827 0.2865 0.14766 0.43942 0.065 0.15292 0.19396 0.46397 0.25055 0.72008 0.0566 0.25612 0.0909 0.55005 0.15557 0.65319 0.0647 0.10314 0.20624 0.28509 0.20624 0.36103 0 0.07594 0.0399 0.24966 0.13178 0.37883 0.40058 0.56256 0.46346 0.89843 0.0938 1.3378-0.1722 0.20464-0.13845 0.39722-0.0753 0.64387 0.10394 0.40563 0.25723 1.016 0.39735 1.3332 0.0648 0.14674 0.17103 0.40399 0.17103 0.45619 0 0.17251 0.36043 1.1387 0.59245 1.4429 0.12535 0.16436 0.34401 0.57874 0.42814 0.89919 0.0841 0.32045 0.19481 0.82324 0.3109 1.0523 0.36406 0.71844 0.52978 1.1681 0.53649 2.2078 3e-3 0.53241 0.0976 1.2262 0.10129 1.5562 6e-3 0.55549-0.10048 0.61193-0.47647 1.3498-0.22336 0.43833-0.48558 0.85504-0.58268 0.94765l-0.088 0.23925 0.35267 0.081c0.32733 0.12387 0.74788 0.38475 0.89884 0.65368 0.10914 0.19445 0.11533 0.15113-0.0109 0.3439-0.0783 0.11955-0.43947 0.28297-0.82492 0.47678-0.38472 0.19343-0.76381 0.44072-0.82202 0.48828-0.0633 0.0517-0.0975 0.38243-0.0975 0.68589 0 0.48148 0.0175 0.67487 0.40779 0.88022 0.90356 0.44078 1.6814 0.85223 2.5715 1.1878 0.77437 0.41124 1.3945 0.98353 2.3575 2.1077 0.0798 0.0931 0.12405 0.26192 0.15613 0.33177 0.0321 0.0699 0.16898 0.31217 0.26091 0.45187 0.0919 0.1397 0.24256 0.33387 0.29143 0.44593 0.0489 0.11206 0.1687 0.33749 0.29514 0.52984 0.12644 0.19234 0.34419 0.46434 0.48389 0.73436 0.361 0.69777 1.2557 1.8347 1.7671 1.7834 0.71034 0.12437 1.4248 0.41314 2.0282 0.69964 0.0569 0.14836 0.44957 0.54323 0.65409 0.54323 0.1461 0 0.51654 0.50156 0.75542 0.87773 0.0796 0.12532 0.17127 0.28091 0.3048 0.38906 0.26775 0.21044 0.34491 0.47694 0.58976 0.7739 0.44258 0.45963 0.55309 0.85544 0.49566 1.0364-0.0634 0.19985 0.20385 0.93241 0.44443 1.078 0.12531 0.0758 0.32395 0.22549 0.29378 0.34084-0.0302 0.11554-0.0578 0.28477 0.13938 0.50299 0.22668 0.25091 0.12477 0.33484 0.12477 0.59473 0 0.18295 0.13338 0.29372 0.0799 0.34721-0.0732 0.0732 8e-3 0.13807 0.11317 0.29848 0.0768 0.11716 0.0693 0.29552 0.07 0.42521 8.5e-4 0.1297-0.0714-0.20507 0 0 0.13693 0.39321-0.0383 1.1386-0.21852 1.1387-0.0824 8e-5 0.20223 0.25432 0.2137 0.94561 0.0393 2.3766 0.0312 2.5786 0.45229 3.2058 0.0886 0.13203 0.17094 0.39873 0.18288 0.59267 0.0731 1.1876 0.13994 1.7757 0.3472 1.9038 0.0502 0.031 0.26319 0.23534 0.23519 0.28069-0.0281 0.0454 0.0893 0.16202 0.17418 0.28803 0.0849 0.12601 0.27811 0.52518 0.55603 0.88245 0.19792 1.2481 2.0444 1.6594 2.5082 2.3822 0.23733 0.40498 1.1882 0.59993 1.3729 0.59993 0.0644 0 0.17739 0.0231 0.25105 0.0514 1.062-1.5634 1.8519 0.0755 0.85363-0.64402 0.0288 0.0466 0.14999 0.0847 0.26936 0.0847 0.36631-0.0117 0.18475-0.28843 0.60873 0.0406 0.38838 0.30513 0.54945 0.38441 0.69018 0.33974 0.14271-0.0453 0.23777 5e-3 0.42702 0.22518 0.19969 0.23249 0.25819 0.2612 0.32547 0.1597 0.0676-0.10203 0.11633-0.0805 0.27763 0.12272 0.10759 0.13555 0.21466 0.36269 0.23794 0.50474 0.0339 0.20651 0.0894 0.26368 0.27691 0.28524 0.14049 0.0161 0.3082 0.12652 0.41809 0.27517 0.12286 0.16617 0.25786 0.2482 0.40847 0.2482 0.41269 0 0.25897 0.21186 0.38708 1.1628l-0.0516 0.82308-0.7918 0.71986c-0.41193 0.40541-0.82881 0.9159-0.95526 1.1344-0.16377 0.28303-0.34299 0.37312-0.5353 0.43021-0.14848 0.0441-0.40407 0.14701-0.68347 0.22874-0.2794 0.0817-0.81319 0.28912-1.1284 0.44643-0.60324 0.30102-1.4964 0.56087-2.0673 0.65729-0.32896 0.0556-0.98329 0.19716-2.2013 0.53218-0.32597 0.0897-0.83309 0.18422-1.1125 0.25345-2.4411 0.60485-2.7645 0.74666-4.052 1.364-0.86143 0.41301-1.0253 0.52455-2.2931 1.8536-0.3014 0.31597-0.56449 0.42545-0.78659 0.48526-0.20745 0.0559-1.7434 0.0547-4.4873 0.0576-2.3912 2e-3 -5.7954 0.10438-7.5649 0.12548-4.9286 0.0588-7.2687 0.0286-7.782 8e-3zm14.193-10.28c0.54787 0.86226 1.7015-1.4445 2.4125-0.71085 1.6654-0.0777 2.0554-1.1857 3.6165-1.097 0.26624-0.39814 1.2221-0.44851 1.4387-0.0213 1.6138 0.9158 3.4221 3.0054 3.5614 1.035-0.37287-0.64914-0.24393-1.3469-0.35885-1.4664-0.13206-0.12345-0.30362-0.35782-0.38126-0.5208-0.0776-0.16298-0.29292-0.48683-0.4784-0.71967-0.18547-0.23283-0.38381-0.51858-0.44074-0.635-0.0569-0.11641-0.24531-0.38523-0.41861-0.59736-0.1733-0.21214-0.38241-0.55503-0.46469-0.762-0.0823-0.20697-0.29449-0.60128-0.47157-0.87626-0.17709-0.27498-0.32197-0.55713-0.32197-0.62701 0-0.0699-0.0902-0.24533-0.20047-0.38989-0.11026-0.14456-0.22584-0.37829-0.25683-0.51941-0.031-0.14111-0.13927-0.38838-0.24063-0.54948-0.23102-0.36721-0.39759-0.91837-0.45954-1.5206-0.0263-0.25611-0.10518-0.53092-0.17515-0.61067-0.07-0.0798-0.10385-0.206-0.0752-0.28054 0.0286-0.0745-7e-3 -0.2493-0.0788-0.38838-0.0719-0.13908-0.10661-0.32899-0.0771-0.42203 0.0295-0.093 0.0158-0.21496-0.0305-0.27094-0.0463-0.056-0.10486-0.40657-0.13017-0.7791-0.0253-0.37254-0.089-0.81069-0.14151-0.97367-0.18878-0.58566-0.23888-0.88016-0.17194-1.0105 0.0934-0.18176-0.0662-1.4405-0.20838-1.6435-0.0648-0.0925-0.0953-0.26468-0.0697-0.39296 0.0251-0.12557-0.0151-0.40711-0.0892-0.62565-0.19717-0.58074-0.17762-1.2456 0.0449-1.5286l0.17985-0.22864-0.23802-0.24844c-0.4028-0.42043-0.67442-0.84542-0.92268-0.13574-0.11811 0.33761-0.37522 1.2707-0.40805 1.5734-0.0328 0.30269-0.0638 0.56338-0.0996 0.60994-0.0357 0.0466-0.1762 0.52179-0.35296 0.96417-0.26782 0.64909-0.48992 0.89713-0.78395 1.2962-0.31197 0.44782-1.3357 1.6412-2.7242 3.0832l-0.62571 0.58427-0.0479 0.7001c0.0705 0.68514 0.3674 1.5452 0.51797 1.8175 0.0678 0.12259 0.14742 0.398 0.21779 0.56098 0.0704 0.16298 0.13172 0.36183 0.17714 0.43168 0.0454 0.0699 0.1857 0.32351 0.28109 0.53306 0.0954 0.20955 0.27807 0.4925 0.40595 0.71044 0.12788 0.21793 0.25408 0.54607 0.3417 0.69856 0.0877 0.15272 0.22027 0.48306 0.24382 0.77638 0.0381 0.47457-0.0275 0.48704-0.22888 0.79143-0.27902 0.42164-0.50172 0.86714-0.65801 1.202-0.0652 0.1397-0.1663 0.29934-0.21023 0.36919-0.0856 0.13609-0.54977 1.0245-1.11 2.1216-0.39221 0.76799-0.78174 1.5341-0.52019 1.451 0.1288-0.0409 0.59456-0.12151 0.59456 8.8e-4 0 0.26999 0.21792-0.0604 0.44435-0.30294 0.13605-0.13903 0.16183-0.31339 0.19341-0.45582zm-8.5981-37.795c0.067-0.36552 0.0616-0.48954-0.0241-0.5607-0.0605-0.05026-0.1101-0.16291-0.1101-0.25034 0-0.08743-0.0648-0.43459-0.13357-0.43459-0.19476 0-1.455 0.53065-1.455 0.59752 0 0.0328 0.18053 0.28255 0.27863 0.37126 0.0981 0.08871 0.0936 0.39604 0.16353 0.57066 0.12153 0.3035 0.42021 0.17551 0.79869 0.17551h0.39593zm-16.065-6.2159c0.42703-1.2466 0.24492-1.305-0.11153-1.5152l-0.30326-0.17893-0.0826 0.21723c-0.10722 0.282-0.2521 0.2273-0.46387-0.17512-0.0939-0.17836-0.22721-0.35066-0.29633-0.38289-0.0691-0.03223-0.30295-0.14411-0.5196-0.24862-0.3236-0.15609-0.42682-0.17242-0.57812-0.09144-0.10131 0.05422-0.23837 0.07779-0.30458 0.05238-0.13819-0.05303-0.16224 0.17453-0.039 0.36934 0.0671 0.10608 0.1239 0.10819 0.3838 0.0142 0.23858-0.08627 0.33184-0.08809 0.42795-0.0083 0.17697 0.14686 0.15119 0.47519-0.0483 0.6149-0.1512 0.1059-0.15614 0.13239-0.0423 0.22683 0.0709 0.05881 0.12885 0.14184 0.12885 0.1845 0.33476 0.41003 0.55314 0.7584 0.7852 1.1463 0.0593 0.03724 0.17451 0.17248 0.25595 0.30054 0.0815 0.12806 0.30341 0.39969 0.36055 0.39946 0.0571-2.54e-4 0.29972-0.49464 0.44719-0.92515zm0.34386-1.8873c0.0712-0.19221-0.013-0.4082-0.36305-0.93133-0.12429-0.18571-0.22084-0.23283-0.47707-0.23283h-0.32124l0.16164 0.33458c0.0889 0.18402 0.16166 0.36605 0.16166 0.40452 0 0.03847 0.0667 0.13288 0.14816 0.2098 0.0815 0.07692 0.19729 0.19969 0.25734 0.27282 0.15601 0.19 0.35039 0.16415 0.43256-0.05754zm-1.4307-0.99483c0-0.04657-0.0404-0.08467-0.0897-0.08467s-0.0661 0.0381-0.0373 0.08467c0.067 0.10849 0.127 0.10849 0.127 0z" fill="#000"/>
    <g fill="#a4a4a4">
     <path d="m338.4 147.89c-0.25611-0.0104-1.0372-0.0805-1.7357-0.15575-1.0564-0.11386-2.0899-0.13204-6.1461-0.10812l-4.8761 0.0288-0.14729-0.3562c-0.18347-0.44369-0.69618-0.91635-1.1224-1.0347-0.17792-0.0494-0.89932-0.09-1.6031-0.0903-0.70378-2.5e-4 -1.4848-0.0407-1.7357-0.0899-0.25084-0.0492-0.77475-0.10406-1.1643-0.12196-1.1714-0.0538-2.633-0.23259-2.7073-0.33115-0.0384-0.0509-0.12031-0.22582-0.18211-0.3888-0.157-0.41409-0.47919-0.74168-0.97435-0.99066-0.23283-0.11708-0.52126-0.30459-0.64094-0.4167-0.11969-0.1121-0.71458-0.44868-1.322-0.74794-1.0337-0.50931-1.124-0.5737-1.4111-1.0062-0.16868-0.25413-0.34547-0.56404-0.39287-0.68869-0.12468-0.32793-0.567-0.96534-0.94289-1.3588-0.38008-0.39779-0.81865-1.3951-0.61352-1.3951 0.0688 0 0.39177 0.0606 0.71762 0.13475 0.87075 0.19805 1.2066 0.45401 1.6079 1.2252 0.18472 0.35505 0.41566 0.73122 0.51321 0.83593 0.0976 0.10471 0.57284 0.37973 1.0562 0.61117 0.48337 0.23143 1.0486 0.55035 1.256 0.70871 0.20745 0.15835 0.56734 0.38427 0.79975 0.50204 0.46202 0.23412 0.84321 0.65184 0.98772 1.0824l0.0927 0.27611 1.1357 0.10568c0.62465 0.0581 1.5358 0.15057 2.0247 0.20543 0.48895 0.0549 1.5367 0.12161 2.3283 0.14832 1.127 0.038 1.4963 0.0798 1.7019 0.19241 0.32152 0.17612 0.78675 0.6941 0.89027 0.9912l0.0765 0.21963 4.6346-0.0282c3.841-0.0234 4.8666-4e-3 5.9893 0.11079 1.1547 0.11848 2.1484 0.13309 6.731 0.099 10.331-0.077 14.606-0.11346 14.795-0.12628 0.21945-0.0149 0.7915-0.50449 1.1246-0.96247 0.71742-0.98637 2.3764-1.7902 5.1198-2.4806 0.8382-0.21096 1.886-0.47885 2.3283-0.59532 0.44239-0.11646 1.0842-0.2703 1.4262-0.34187 0.69888-0.14624 1.8675-0.55774 2.2548-0.79398 0.14081-0.0859 0.54176-0.23852 0.89101-0.3392 0.34925-0.10069 0.70231-0.20242 0.78459-0.22608 0.0823-0.0237 0.22118-0.18335 0.30869-0.35487 1.6781-1.8282 3.1937-2.2737 3.3094-1.2519v0.86112l-0.66738 0.64229c-0.36705 0.35326-0.81473 0.86474-0.99483 1.1366-0.3267 0.4932-0.3292 0.49484-1.0895 0.71691-0.4191 0.12242-0.97155 0.32975-1.2277 0.46074-0.64342 0.32906-1.4842 0.60633-2.5823 0.85156-0.51223 0.1144-1.2742 0.30471-1.6933 0.42292-0.4191 0.11822-1.0096 0.27688-1.3123 0.35259-2.4063 0.60187-2.8553 0.74872-3.9849 1.3034-0.80999 0.39772-1.0145 0.56637-2.2342 1.8425-0.27189 0.28446-0.53185 0.46914-0.7389 0.52489-0.19607 0.0528-1.996 0.087-4.6605 0.0886-2.3876 1e-3 -5.7889 0.0199-7.5584 0.0411-4.9209 0.0588-7.9105 0.0797-8.4243 0.0589zm12.632-8.9303c-0.0559-0.0559-0.1017-0.15547-0.1017-0.22119 0-0.0907-0.0714-0.10609-0.29633-0.0639-0.32897 0.0617-0.32497 0.0701-0.29673-0.62553 9e-3 -0.23005 0.067-0.41495 0.14798-0.47413 0.0927-0.0678 0.11745-0.17307 0.0822-0.34941-0.0879-0.43958 0.28738-0.93864 1.6276-3.4315 0.46316-0.86148 0.87908-1.7316 0.9651-1.8928 0.27619-0.51755 0.11471-0.77324-0.78399-2.5148-0.94878-1.8386-1.1662-2.426-1.2442-3.3618l-0.0545-0.65403 0.87895-0.95818c0.48342-0.527 1.1894-1.2876 1.5689-1.6902 0.37949-0.40259 0.86565-1.0035 1.0804-1.3354 0.46406-0.71736 0.92899-1.8909 1.0497-2.6496 0.0478-0.30042 0.17595-0.79386 0.28478-1.0966 0.23559-0.65516 0.39164-0.71809 0.95784-0.38627 0.45228 0.26505 0.51373 0.35168 0.35913 0.50628-0.17799 0.17799-0.54387 1.2934-0.61077 1.8619-0.0324 0.27514-0.11094 0.61804-0.17458 0.762-0.0636 0.14396-0.23173 0.53512-0.3735 0.86923-0.33761 0.79558-1.0789 1.8631-1.6475 2.3723-0.24983 0.22378-0.6079 0.59737-0.79571 0.8302-0.1878 0.23283-0.65176 0.74695-1.031 1.1425l-0.68955 0.71914 0.0553 0.50853c0.1099 1.0118 0.30642 1.6212 0.93008 2.8844 0.34628 0.70138 0.71965 1.4079 0.82972 1.5701 0.518 0.76332 0.52483 1.5821 0.0183 2.1923-0.24179 0.29123-2.1602 4.0464-2.1602 4.2284 0 0.0751-0.0593 0.22122-0.1318 0.32471-0.12736 0.18184-0.0856 0.23588 0.15297 0.1982 0.16707-0.0264 0.0332 0.32477-0.2158 0.56613-0.21739 0.2107-0.30184 0.24817-0.381 0.16901zm-3.827-1.2945c0-0.20392 0.0525-0.32842 0.16933-0.40137 0.0931-0.0582 0.16933-0.16986 0.16933-0.24823 0-0.0784 0.12523-0.30733 0.27829-0.5088 0.15305-0.20148 0.33159-0.49967 0.39676-0.66265 0.13531-0.33843 0.81828-1.3924 1.2488-1.9272 0.28678-0.35623 0.448-0.40001 0.44563-0.12101-2e-3 0.1907-0.81477 1.8755-1.0089 2.0905-0.0841 0.0931-0.17925 0.2802-0.2114 0.41569-0.0322 0.1355-0.22765 0.44441-0.43444 0.68646-0.2068 0.24206-0.376 0.48362-0.376 0.53681 0 0.0532-0.0927 0.0967-0.20596 0.0967-0.13161 0-0.22537 0.0611-0.25971 0.16933-0.0859 0.27079-0.21166 0.19578-0.21166-0.12628zm18.274-4.946c-0.25477-0.2822-0.49774-0.6507-0.55748-0.84546-0.0582-0.18988-0.22015-0.53097-0.35983-0.75797-0.13967-0.22701-0.25396-0.45805-0.25396-0.51342 0-0.0554-0.065-0.2226-0.14452-0.37163-0.0795-0.14903-0.17032-0.49957-0.20186-0.77897-0.14092-1.2485-0.19053-1.4488-0.47427-1.9144-0.46598-0.59558-0.30522-1.3542-0.3181-2.0743-0.15701-1.2005 0.15198-2.1305-0.0467-2.9907 0-0.093-0.0651-0.30574-0.14471-0.47264-0.0788-0.45928-0.0635-0.76458-0.23792-1.1593-0.0315-0.12614-0.11065-0.27368-0.17593-0.32786-0.14174-0.20681-0.21655-0.45729-0.32852-0.65248-0.1154-0.17438-0.23602-0.44979-0.26804-0.61201-0.0957-0.4848-0.25386-0.78654-0.57385-1.0947-0.16662-0.16047-0.30295-0.32766-0.30295-0.37153 0-0.0439-0.1524-0.24509-0.33867-0.44717-0.18626-0.20207-0.33866-0.40636-0.33866-0.45396s0.12382-0.0843 0.27516-0.0816c0.28348 5e-3 0.31456 0.0327 1.2477 1.1051 0.18687 0.21476 0.33976 0.42636 0.33976 0.47023 0 0.0439 0.13647 0.21105 0.30326 0.37153 0.3511 0.3378 0.62808 0.85993 0.62808 1.184 0 0.12397 0.1143 0.38318 0.254 0.57603 0.1397 0.19286 0.254 0.40241 0.254 0.46567 0 0.0633 0.10552 0.26362 0.23449 0.44523 0.34709 0.48876 0.4398 0.73769 0.3407 0.91478-0.20812 0.77197 0.66184 1.4227 0.0613 2.094 0.0377 0.11007 0.0814 0.69543 0.0971 1.3008 0.0635 2.4517 0.0495 2.3364 0.33504 2.7595 0.25907 0.38387 0.28219 0.47937 0.44914 1.8548 0.0692 0.57051 0.29408 1.2618 0.52559 1.616 0.77695 1.1886 0.5831 1.7178-0.27934 0.76248zm-42.058-9.6527c-0.0892-0.0892-0.23733-0.33202-0.32913-0.53953-0.0918-0.20752-0.30637-0.53169-0.47685-0.72038-0.17047-0.1887-0.3443-0.45073-0.3863-0.58231-0.2852-0.8936-0.53994-1.4436-0.8752-1.8896-0.28936-0.38492-0.3967-0.61191-0.43162-0.91266-0.19317-1.6638-0.58157-3.7405-0.76822-4.1074-0.32661-0.64209-0.34142-1.0847-0.0643-1.9232 0.25933-0.7848 0.33027-0.93133 0.45089-0.93133 0.12003 0 0.095 0.24042-0.0846 0.81326-0.17968 0.57306-0.15428 0.80461 0.16559 1.5093 0.18679 0.41149 0.65065 2.8107 0.73775 3.8158 0.0373 0.43076 0.0991 0.58157 0.40592 0.99185 0.31858 0.42591 0.88701 1.682 0.88701 1.9601 0 0.0556 0.12383 0.21809 0.27517 0.36103 0.15134 0.14295 0.38694 0.49423 0.52357 0.78064 0.3528 0.73959 0.5305 0.70134 1.0227-0.22011 0.23715-0.44395 0.37987-0.56146 0.37987-0.31279 0 0.24278-0.62859 1.5822-0.85756 1.8273-0.2666 0.2854-0.35682 0.29797-0.57467 0.0801zm1.6149-2.0841c-0.16205-0.16243-0.18738-0.25006-0.13839-0.47905 0.0928-0.43367 0.19517-0.52094 0.43038-0.36683 0.1082 0.0709 0.25523 0.12891 0.32671 0.12891 0.16758 0 0.15921 0.21993-0.0225 0.59156-0.17428 0.3564-0.3325 0.38968-0.59617 0.12541zm18.91-0.77712c-1.0681-0.0748-2.2072-0.30766-3.4626-0.70795-0.74986-0.2391-1.4396-0.46505-1.5327-0.50211-1.5052-0.59894-2.4678-1.0527-3.3081-1.5594-0.27606-0.16646-0.54001-0.30114-0.58658-0.2993-0.0466 2e-3 -0.23707 0.20991-0.42333 0.46238-0.38015 0.51526-0.4308 0.5492-0.73341 0.49136-0.59176-0.11313-1.7332-1.4086-1.4945-1.6962 0.0794-0.0957 0.17511-0.041 0.52745 0.30118 0.78953 0.76675 1.0111 0.78776 1.4888 0.14112 0.1892-0.25612 0.39606-0.46567 0.45968-0.46567 0.0636 0 0.35781 0.14711 0.65375 0.3269 1.1949 0.72592 2.2926 1.1969 4.4401 1.9052 0.85387 0.28161 1.7216 0.51027 2.1167 0.55775 0.36823 0.0443 1.0217 0.12132 1.4522 0.17124 0.89788 0.10412 1.207 0.20032 1.207 0.37565 0 0.23076-0.16466 0.55801-0.27306 0.54268-0.0594-8e-3 -0.29844-0.0286-0.53127-0.0449zm-12.73-3.9753c-0.22577-0.11356-0.31667-0.12244-0.44335-0.0433-0.0876 0.0547-0.20878 0.0995-0.26919 0.0995-0.27597 0-1.9206-1.25-1.9279-1.4654-6e-3 -0.17952-0.45142-0.6192-0.87589-0.86482-0.46945-0.20611-0.90679 0.20974-1.2762 0.1843-0.28691-0.0198-0.53287-0.30564-0.72112-1.3556-0.043-0.26413-0.10137-0.51778-0.12973-0.56368-0.12616-0.20413-1.744 2e-3 -2.4362 0.31015-0.24829 0.11058-0.34305 0.11992-0.42143 0.0415-0.36796-0.36795 1.026-0.9385 2.3703-0.9702 0.61195-0.0144 0.65286-4e-3 0.75511 0.19641 0.0595 0.11641 0.13032 0.38932 0.15746 0.60646 0.0389 0.31112 0.12601 0.47711 0.41102 0.78316 0.42188 0.45303 0.59573 0.48556 0.71815 0.13438 0.11118-0.31894 0.20435-0.31604 0.74328 0.0231 0.43135 0.27143 0.80186 0.65112 0.90102 0.92338 0.0586 0.16094 0.97876 0.9147 1.3945 1.1423 0.2212 0.12112 0.3215 0.13248 0.51729 0.0586 0.18442-0.0696 0.29159-0.0647 0.44526 0.0205 0.2521 0.13973 0.59462 0.14798 0.87321 0.0211 0.1645-0.075 0.24269-0.0726 0.34265 0.0104 0.17872 0.14833 0.16231 0.29471-0.061 0.54382-0.25117 0.2802-0.69932 0.3491-1.0672 0.16407zm25.402-1.3617c-0.34125-0.36104-0.8129-0.98029-1.0481-1.3761-0.23522-0.39582-0.64023-1.0816-0.90002-1.524-0.55289-0.94148-1.1731-1.7592-1.6035-2.1139-0.40043-0.33006-0.28336-0.43219 0.19552-0.17058 1.0455 0.57113 1.6646 1.3669 3.292 4.2318 0.17194 0.30269 0.48202 0.75179 0.68907 0.99801 0.42588 0.50643 0.45757 0.61054 0.18597 0.61094-0.12803 1.7e-4 -0.39398-0.21501-0.81095-0.65617zm-6.8395-6.7338c-0.0983-0.0568-0.33639-0.21318-0.52917-0.34743l-0.35053-0.24408v-1.2464l0.35983-0.26463c0.19791-0.14555 0.49319-0.31895 0.65617-0.38533 0.71645-0.2918 0.83284-0.41519 0.67312-0.71365-0.0737-0.13775-0.0636-0.2216-2e-3 -0.25578 0.12283-0.0678 0.44944 0.0601 0.72802 0.35088 0.34867 0.36393 0.21376 0.58998-0.57572 0.96462-1.0167 0.48248-1.0777 0.55209-1.0777 1.23 0 0.49555 0.0255 0.5931 0.18191 0.69698 0.24445 0.16231 0.18556 0.35937-0.0642 0.21488zm-24.778-0.59017c-0.35409-0.86509-0.40914-1.0864-0.46066-1.8518-0.0562-0.83443 0.10076-2.2854 0.28587-2.6434 0.0685-0.13238 0.14385-0.22132 0.16754-0.19763 0.0237 0.0237 0.0846 0.38435 0.013 0.8423-0.18775 1.1997-0.11231 2.3132 0.29123 3.3219 0.34109 0.85254 0.29827 1.0578 0.0762 1.0578-0.11258 0-0.21754-0.1488-0.37323-0.52916zm24.554-3.0852c-0.20283-0.053-0.18579-0.25634 0.0477-0.56865 0.10771-0.14409 0.34458-0.52869 0.52636-0.85465 0.30195-0.54147 0.32955-0.64387 0.31954-1.1853-6e-3 -0.32596-0.0136-1.0285-0.0168-1.5611-6e-3 -1.0349-0.0995-1.448-0.51707-2.2912-0.12682-0.25612-0.2578-0.61807-0.29106-0.80433-0.0333-0.18627-0.17573-0.51951-0.3166-0.74055-0.32736-0.51364-0.97727-2.0077-1.0513-2.4169-0.0312-0.17265-0.10343-0.40916-0.1604-0.52558-0.21872-0.44689-0.21976-0.74033-4e-3 -0.9973 0.32779-0.38956 0.34776-0.63506 0.0891-1.0958-0.26215-0.467-0.42746-0.89083-0.6036-1.5476-0.2708-1.0097-0.50358-1.5192-0.80555-1.763-0.15641-0.12628-0.24356-0.27609-0.24356-0.4187 0-0.12394-0.0975-0.32387-0.22073-0.45246-0.18386-0.19191-0.23403-0.35146-0.30037-0.95511-0.0726-0.66094-0.0649-0.74538 0.0883-0.95957 0.15524-0.21717 0.16251-0.30819 0.0964-1.2085-0.13531-1.8439-0.75659-2.8238-2.0187-3.1838-0.26467-0.07549-0.60817-0.21422-0.76335-0.30827l-0.28212-0.17101-0.39521 0.17791c-0.21736 0.09785-0.5476 0.21707-0.73387 0.26492-0.18626 0.04786-0.50447 0.1824-0.70714 0.29897-0.43071 0.24775-0.43586 0.24883-0.43586 0.09145 0-0.35957 0.98727-1.0478 1.6933-1.1804 0.16298-0.03061 0.45707-0.14027 0.65353-0.24368l0.35719-0.18803 0.44714 0.22512c0.24593 0.12382 0.61859 0.27371 0.82814 0.33309 1.235 0.34999 1.9717 1.5926 2.0894 3.5242 0.0478 0.78398 0.0365 0.88013-0.13735 1.1748-0.16965 0.28753-0.17854 0.3538-0.0853 0.6362 0.0572 0.17338 0.0811 0.43007 0.053 0.57042-0.0415 0.20728 2e-3 0.31866 0.2315 0.59335 0.20069 0.24022 0.27116 0.39764 0.24328 0.54349-0.0299 0.15655 0.0217 0.24872 0.21731 0.38801 0.25 0.17802 0.52087 0.60426 0.52087 0.81965 0 0.05892 0.0539 0.21499 0.11981 0.34682 0.0659 0.13183 0.16535 0.44924 0.22102 0.70536 0.0557 0.25612 0.15416 0.55005 0.21886 0.65319s0.11765 0.25766 0.11765 0.34338c0 0.08573 0.0948 0.28435 0.21066 0.4414 0.37309 0.5057 0.36161 0.93643-0.0384 1.4407-0.18225 0.22976-0.16885 0.35507 0.13127 1.2277 0.50659 1.4729 0.71657 1.9698 1.0515 2.488 0.17314 0.26788 0.36537 0.69398 0.42716 0.94689 0.0618 0.2529 0.21623 0.67137 0.34319 0.92992 0.38054 0.77497 0.51841 1.375 0.49201 2.1412-0.0131 0.37991 6e-3 0.94394 0.043 1.2534 0.0897 0.75542-0.0287 1.2481-0.49626 2.0659-0.59919 1.0479-0.71222 1.1377-1.254 0.99613zm-23.231-4.3156c0.0627-0.46548 0.18668-0.93128 0.18052-1.371 0.0763-0.72893 0.58572-3.4681 0.80492-3.6873 0.11245-0.11246 0.2453 0.18855 0.13263 0.48553-0.21633 0.56897-0.45741 1.6441-0.60854 2.8084-0.25761 1.9846-0.38979 2.076-0.47154 2.1266-0.0441 0.0273-0.0603-0.12729-0.0378-0.36214zm16.258 0.16045c-0.0519-0.0342-0.17594-0.2146-0.27553-0.40087-0.0996-0.18627-0.26462-0.44354-0.36675-0.57173-0.12264-0.15396-0.15719-0.26154-0.10176-0.31696 0.106-0.106 1.5377-0.59297 1.7434-0.59297 0.42252 0-0.14467 0.30915-1.0107 0.5509-0.23795 0.06642-0.24309 0.22193-0.0142 0.42909 0.21186 0.19174 0.4383 0.70334 0.37932 0.85704-0.0466 0.12144-0.2071 0.14209-0.35377 0.0455zm-2.699-3.6106c-0.13061-0.11223-0.45086-0.26737-0.71167-0.34475s-0.64564-0.24495-0.85519-0.37238c-0.31236-0.18994-0.3932-0.29182-0.44869-0.56542-0.0892-0.4399-0.22952-1.0191-0.34314-1.4168-0.0991-0.34685-0.01-0.61022 0.20641-0.61022 0.11274 0 0.24233 0.4082 0.43007 1.3547 0.0462 0.23283 0.10959 0.5161 0.14092 0.62948 0.0635 0.22974 0.7109 0.66568 1.0043 0.6762 0.10203 0.0037 0.20724 0.04182 0.23381 0.08481 0.0266 0.04298 0.15738 0.10211 0.2907 0.13139 0.28239 0.06202 0.64564 0.41388 0.56387 0.54619-0.089 0.14394-0.25492 0.10722-0.51135-0.11312zm-12.574-2.0995c0-0.06292 0.0742-0.17789 0.1648-0.2555s0.20573-0.30515 0.25574-0.50565c0.05-0.2005 0.16635-0.52749 0.25853-0.72664 0.0922-0.19915 0.17595-0.42893 0.17595-0.52082 0-0.09189 0.1126-0.16178 0.1613-0.16178 0.23111 0-0.54309 2.2229-0.79081 2.2706-0.0794 0.01529-0.22551-0.03732-0.22551-0.10023zm12.456-0.01308c-0.0525-0.06328-0.15125-0.30036-0.21942-0.52685-0.10943-0.36361-0.10908-0.43445 3e-3 -0.60547 0.0936-0.14289 0.10403-0.2364 0.0397-0.35658-0.0479-0.0896-0.0872-0.25848-0.0872-0.3753 0-0.11682-0.0717-0.3384-0.15941-0.4924-0.0877-0.154-0.18263-0.38072-0.21101-0.50382-0.0429-0.18595-0.0176-0.23235 0.14936-0.27426 0.35522-0.08915 0.32954-0.41695-0.0721-0.92035-0.47969-0.60124-1.2707-1.4084-1.7629-1.799-0.22277-0.17676-0.39089-0.36336-0.37361-0.41467 0.084-0.24943 1.1187 0.1417 1.421 0.53717 0.11238 0.14704 0.39484 0.47429 0.62767 0.72723 1.0187 1.1067 1.0072 1.081 0.67733 1.5135-0.25762 0.33776-0.261 0.42598-0.0327 0.852 0.0985 0.18368 0.19008 0.43077 0.20362 0.54908 0.0135 0.11831 0.0523 0.35799 0.0861 0.53262 0.0507 0.26222 0.0374 0.3175-0.0766 0.3175-0.1498 0-0.18471 0.17128-0.0613 0.30057 0.13711 0.1436 0.23947 0.67163 0.16777 0.86546-0.0798 0.21572-0.18185 0.23923-0.31932 0.07358zm-15.2-2.074c-0.0246-0.0398 0.0474-0.15892 0.16002-0.26471 0.21584-0.20276 0.46737-0.18387 0.46737 0.0351 0 0.21732-0.51785 0.40684-0.62739 0.22961zm0.79673-0.55506c0-0.19884 0.40663-0.43914 0.53161-0.31416 0.14527 0.14527-0.031 0.38504-0.30732 0.41805-0.15731 0.01879-0.22429-0.01224-0.22429-0.10388zm1.2727-0.93606c-0.18649-0.19851-0.18937-0.2146-0.0386-0.21567 0.0896-6.77e-4 0.25169-0.02492 0.36017-0.05397 0.17693-0.04738 0.19437-0.02771 0.16934 0.19093-0.0363 0.31683-0.23698 0.34901-0.49091 0.07871zm-7.027-1.5636c-0.12623-0.23586-0.10953-0.48558 0.0827-1.2373 0.19201-0.75073 0.32342-0.92319 1.2055-1.582 0.35288-0.26358 0.5715-0.48799 0.5715-0.58665 0-0.09081-0.11565 0.04396 0 0 0.11188-0.04254 0.43333-0.35728 0.46567-0.4096 0.10359-0.16763 0.47461-0.26731 0.60187-0.1617 0.25024 0.20769 1.2029-0.27986 2.141-1.0958 0.89929-0.78211 1.4315-1.148 2.4175-1.6621 1.1099-0.57873 1.5708-0.94002 1.8738-1.4689 0.28007-0.4889 0.87116-1.1149 1.0527-1.1149 0.0744 0 0.26436-0.09525 0.42216-0.21167 0.15779-0.11642 0.35475-0.21167 0.43768-0.21167 0.12688 0 0.13769 0.03444 0.0682 0.21718-0.13162 0.34618-0.10607 0.36384 0.33794 0.23368 0.85394-0.25032 1.4355 0.07161 1.0312 0.57086-0.15286 0.18877-0.18644 0.19594-0.45775 0.09783-0.24434-0.08835-0.33331-0.08475-0.53756 0.02177-0.13462 0.07021-0.33525 0.12788-0.44585 0.12817-0.17869 4.66e-4 -0.19538-0.02798-0.14987-0.25554 0.0465-0.23256 0.0363-0.24806-0.1117-0.16888-0.0896 0.04795-0.18633 0.12508-0.21496 0.1714-0.0286 0.04632-0.12307 0.08421-0.20988 0.08421-0.241 0-0.63075 0.3716-1.0016 0.95493-0.45118 0.70972-0.81644 1.0101-1.9499 1.6036-1.0105 0.52908-1.693 1.0022-2.4748 1.7156-0.25949 0.23677-0.75221 0.57784-1.0949 0.75794-0.55498 0.29163-0.65058 0.3171-0.87392 0.2328-0.21996-0.08303-0.28126-0.06899-0.49905 0.11427-0.13656 0.11491-0.27902 0.20892-0.31658 0.20892-0.0376 0-0.087 0.07144-0.10981 0.15877-0.0228 0.08732-0.24925 0.31222-0.50313 0.49977-0.71702 0.5297-1.0677 0.89438-1.1217 1.1663-0.0272 0.1372-0.087 0.41193-0.13278 0.61051-0.0458 0.19858-0.0833 0.45575-0.0833 0.5715 0 0.26061-0.28871 0.29268-0.42036 0.04668zm20.359-0.63984c-0.0466-0.01553-0.19041-0.0516-0.31965-0.08014-0.37128-0.08199-0.56935-0.33729-0.56935-0.73386 0-0.39576-0.23078-0.72647-0.74383-1.0659-0.34718-0.2297-0.94951-0.83628-0.94951-0.95622 0-0.042-0.10196-0.12607-0.22658-0.18682-0.12461-0.06075-0.2413-0.1557-0.25929-0.211-0.0409-0.12572 0.27462-0.44979 0.43792-0.44979 0.0668 0 0.29598 0.22224 0.50939 0.49387 0.34726 0.442 0.95917 0.94546 1.1491 0.94546 0.0392 0 0.0956 0.07624 0.12513 0.16942 0.0296 0.09318 0.12554 0.20783 0.21325 0.25478 0.11734 0.0628 0.17496 0.2221 0.21803 0.6028l0.0585 0.51744 0.45357 0.20765c0.24947 0.11421 0.45358 0.23534 0.45358 0.26918 0 0.18652-0.29794 0.30731-0.55033 0.22312zm-3.6076-4.2636c-0.25104-0.13269-0.60883-0.32541-0.7951-0.42826-0.30968-0.171-0.42215-0.18341-1.314-0.14507-0.53641 0.02306-1.0818 0.08243-1.212 0.13193-0.30066 0.11431-0.78149 0.11568-0.99237 0.0028-0.30621-0.16388-0.54175-0.84274-0.33644-0.96964 0.0452-0.02794 0.16639 0.04601 0.26928 0.16434 0.15596 0.17938 0.26101 0.21514 0.63194 0.21514 0.24469 0 0.54636-0.03858 0.67038-0.08573s0.65038-0.10271 1.1697-0.12347c1.0206-0.04079 0.95545-0.05846 1.9206 0.52079 0.3532 0.21197 0.58527 0.28172 1.0908 0.32781 0.35315 0.0322 0.6738 0.07714 0.71254 0.09986 0.0387 0.02272-0.0351 0.15143-0.16401 0.28602-0.33208 0.34662-0.99945 0.34802-1.6513 0.0035zm3.1523-0.60541c0.19298 0 0.21178 0.21562 0.0251 0.28728-0.17174 0.0659-0.62356 0.41566-0.69275 0.34649 0.1887-0.30542 0.36391-0.50582 0.66765-0.63377zm-8.5899-2.2578c-0.109-0.109-0.054-0.20156 0.21872-0.36782 0.2859-0.17432 0.5715-0.22194 0.5715-0.09528 0 0.04022-0.10045 0.17357-0.22322 0.29633-0.21534 0.21534-0.44954 0.28423-0.567 0.16677z"/>
     <path d="m338.36 147.81c-0.23283-0.0109-1.0139-0.0808-1.7357-0.15548-1.0809-0.11177-2.159-0.13068-6.1132-0.10722l-4.8009 0.0285-0.0943-0.21167c-0.19759-0.44348-0.52153-0.82413-0.86718-1.019-0.33553-0.18912-0.47084-0.20542-2.0972-0.25262-0.95618-0.0277-1.784-0.0786-1.8396-0.11291-0.0556-0.0343-0.47341-0.0765-0.92849-0.0936-0.45508-0.0172-1.235-0.0776-1.7332-0.13431-0.90386-0.10292-0.90595-0.10369-0.99771-0.36719-0.18384-0.52791-0.48151-0.86057-1.0285-1.1494-0.29666-0.15663-0.66212-0.39088-0.81215-0.52055-0.15003-0.12968-0.74058-0.46188-1.3123-0.73824-0.95537-0.46177-1.0617-0.53696-1.3131-0.92841-0.15043-0.23428-0.32037-0.53415-0.37763-0.66639-0.17239-0.39813-0.75407-1.2395-1.0466-1.5139-0.26875-0.25206-0.5454-0.91427-0.43012-1.0296 0.108-0.10799 1.0593 0.14725 1.4141 0.37939 0.25481 0.16675 0.4295 0.38436 0.63319 0.78875 0.43728 0.86811 0.64189 1.0578 1.6913 1.5682 0.52171 0.25371 1.1511 0.61243 1.3987 0.79716s0.49507 0.33587 0.54995 0.33587c0.2195 0 0.87445 0.68615 0.99134 1.0386l0.11888 0.35844 1.1365 0.10584c0.62509 0.0582 1.5175 0.14956 1.9832 0.20299 0.46567 0.0534 1.5166 0.12011 2.3354 0.14816 1.4712 0.0504 1.4936 0.054 1.905 0.30843 0.3049 0.18856 0.47113 0.36977 0.62136 0.67734l0.20508 0.4199h4.9172c3.5909 0 5.2048 0.0313 5.9834 0.1161 1.3853 0.15084 1.2756 0.15026 12.099 0.0641 7.4579-0.0594 9.3144-0.0959 9.4928-0.18698 0.22725-0.11597 1.0058-0.93105 1.0058-1.053 0-0.14155 1.0851-0.91136 1.7032-1.2083 1.1636-0.55897 1.4617-0.64763 5.9168-1.7596 1.967-0.49094 2.535-0.6674 3.2465-1.0086 0.39012-0.18708 0.73728-0.34015 0.77143-0.34015 0.0342 0 0.32651-0.0803 0.64968-0.17847 0.52438-0.15928 0.60534-0.21327 0.75259-0.50191 0.0908-0.17789 0.4175-0.57592 0.72609-0.88452 0.54693-0.54693 0.5653-0.55725 0.72869-0.40938 0.55828-0.37594 0.62772-0.29106 1.0319-0.44463 0.0346-0.0901 0.10746-0.11491 0.22666-0.0771 0.47713-0.14634 0.41781 0.525 0.41781 0.525v0.82308l-0.67403 0.65177c-0.37071 0.35847-0.8059 0.85793-0.96709 1.1099-0.27976 0.43735-0.31929 0.46498-0.87113 0.60903-0.31795 0.083-0.97813 0.33352-1.4671 0.55673-0.48895 0.2232-1.1938 0.48348-1.5663 0.5784-0.37254 0.0949-1.1536 0.29157-1.7357 0.43702-4.552 1.1374-5.0019 1.276-6.3923 1.9692-0.56804 0.28321-0.82124 0.48631-1.5692 1.2587-0.62152 0.64184-0.98081 0.94683-1.1853 1.0062-0.17884 0.0519-1.9801 0.0867-4.6115 0.0892-2.3749 2e-3 -5.6706 0.0209-7.3237 0.0415-4.498 0.056-8.2866 0.0817-8.763 0.0594zm12.249-9.51c-0.2177-0.20282-0.22423-0.2715-0.0567-0.59595 0.0699-0.13524 0.18475-0.35757 0.25535-0.49407 0.0906-0.1752 0.10081-0.26518 0.0347-0.30603-0.0556-0.0344-0.0729-0.1685-0.0425-0.33061 0.0585-0.31157 1.4334-3.0536 2.04-4.0682 0.33132-0.55419 0.41415-0.77488 0.45563-1.2139l0.0507-0.53655 0.32847 0.56279c0.48828 0.8366 0.51688 1.4044 0.10156 2.0164-0.19821 0.29208-0.59117 1.0191-1.7029 3.1506-0.26715 0.51223-0.51057 1.0456-0.54092 1.1853-0.0377 0.1737-0.11315 0.26239-0.23853 0.28053-0.10086 0.0146-0.20569 0.0969-0.23298 0.18286-0.0932 0.29373-0.25267 0.35255-0.45207 0.16679zm-2.893-1.3812c0-0.18791 0.6337-0.85218 0.74648-0.78248 0.18373 0.11355 0.10334 0.37028-0.1991 0.63582-0.31651 0.27791-0.54738 0.33976-0.54738 0.14666zm0.81335-1.2037c-0.0558-0.14543 0.21701-0.63304 0.78954-1.4111 0.55327-0.75192 0.52169-0.38684-0.0641 0.74083-0.387 0.74503-0.6157 0.95634-0.72546 0.6703zm17.202-2.9007c-0.29769-0.27439-0.51095-0.60286-0.85153-1.3115-0.72897-1.5168-0.75789-1.5935-0.83443-2.2154-0.14197-1.1533-0.21695-1.4443-0.48952-1.8993-0.18513-0.30903-0.26217-0.52989-0.23479-0.67311 0.0224-0.11724 4e-3 -0.60478-0.0399-1.0834-0.0524-0.56613-0.0514-0.97617 3e-3 -1.1733 0.0616-0.2232 0.0529-0.39029-0.0333-0.63457-0.10642-0.30164-0.0442-0.54597 0.0856-0.33599 0.0297 0.0481 0.0897 0.0654 0.13317 0.0385 0.0864-0.0534 0.0164-0.45572-0.10177-0.58463-0.0406-0.0442-0.0737-0.2075-0.0737-0.36281s-0.0627-0.37801-0.13925-0.4949c-0.1176-0.17948-0.1223-0.24422-0.0302-0.41631 0.0959-0.17925 0.0801-0.26095-0.13122-0.67867-0.13215-0.2612-0.27096-0.49386-0.30848-0.51705-0.0375-0.0232-0.0682-0.0974-0.0682-0.16489 0-0.0675-0.11629-0.28326-0.25842-0.47946-0.16-0.22088-0.24978-0.43898-0.23575-0.57273 0.0125-0.11881-0.0427-0.30933-0.12259-0.42338-0.0799-0.11406-0.14524-0.24226-0.14524-0.2849 0-0.0426-0.14288-0.2432-0.3175-0.44569-0.87287-1.0121-1.0068-1.2171-0.79556-1.2171 0.0623 0 0.44458 0.3012 0.62037 0.48879 0.4463 0.47625 0.83133 0.94229 0.83133 1.0062 0 0.0442 0.13757 0.21174 0.30572 0.37222 0.3197 0.30511 0.62536 0.89543 0.62597 1.209 0 0.10092 0.11434 0.35493 0.25364 0.56448s0.25344 0.44006 0.25364 0.51223c0 0.0722 0.0337 0.16743 0.0746 0.21167 0.0408 0.0442 0.17392 0.26232 0.29578 0.48463 0.17769 0.32413 0.20264 0.43451 0.12596 0.5573-0.0744 0.11918-0.0572 0.26413 0.0776 0.65414 0.0953 0.27557 0.19993 0.64391 0.2326 0.81853 0.0534 0.28539 0.0413 0.3175-0.11937 0.3175-0.21274 0-0.21872 0.053-0.0513 0.4538 0.0906 0.21674 0.12571 0.59379 0.12135 1.3015-0.0121 1.9623 0.0303 2.3417 0.30147 2.6972 0.24514 0.32138 0.31131 0.56963 0.46064 1.7282 0.0851 0.66045 0.30099 1.359 0.52663 1.7042 0.2707 0.41414 0.50344 0.93806 0.47722 1.0742-0.0211 0.10955-0.11562 0.0594-0.42429-0.22513zm-13.51-4.009c-0.32611-0.61963-0.65512-1.3117-0.73115-1.538-0.16877-0.50235-0.33094-1.6144-0.26449-1.8137 0.0267-0.08 0.26514-0.37414 0.52986-0.65354s0.64936-0.6985 0.85475-0.93134c0.2054-0.23283 0.66557-0.72813 1.0226-1.1007 0.67904-0.7085 1.0657-1.2316 1.399-1.8924 0.34506-0.68428 0.6291-1.4796 0.68486-1.9176 0.0698-0.54852 0.47738-1.7438 0.61262-1.7967 0.0576-0.0225 0.27953 0.0614 0.49311 0.1866 0.29569 0.17329 0.37371 0.26119 0.32709 0.36849-0.25602 0.58924-0.53192 1.4937-0.58299 1.9112-0.0337 0.27514-0.11328 0.61804-0.17693 0.762-0.0636 0.14396-0.23315 0.53837-0.37667 0.87645-0.33848 0.79733-0.90607 1.608-1.6485 2.3545-0.32739 0.32919-1.0269 1.0686-1.5545 1.6432l-0.95927 1.0447 0.0561 0.51579c0.11501 1.0578 0.30311 1.6941 0.77451 2.6202 0.11509 0.22611 0.19209 0.42828 0.1711 0.44927-0.021 0.021-0.30497-0.46882-0.63108-1.0884zm-28.689-5.7206c-0.0528-0.0344-0.23658-0.32931-0.4085-0.65528-0.17193-0.32597-0.40348-0.66887-0.51456-0.762-0.11108-0.0931-0.26271-0.34078-0.33695-0.55033-0.0743-0.20955-0.20918-0.58717-0.29985-0.83916-0.0907-0.25198-0.31007-0.65203-0.48757-0.889-0.46461-0.62027-0.46048-0.61009-0.53135-1.3129-0.17253-1.7111-0.5498-3.5553-0.80791-3.9492-0.19018-0.29027-0.24377-1.0571-0.0883-1.2636 0.12086-0.16055 0.12954-0.15295 0.18932 0.1657 0.0345 0.18368 0.14979 0.5261 0.25629 0.76093 0.10651 0.23483 0.27321 0.90321 0.37046 1.4853 0.0973 0.58208 0.21394 1.2422 0.25931 1.467 0.0454 0.22474 0.0825 0.56909 0.0825 0.76522 0 0.36867 0.15983 0.72365 0.65722 1.4596 0.15193 0.22479 0.31083 0.52432 0.35312 0.66563 0.20531 0.68596 0.44589 1.2042 0.63022 1.3576 0.11192 0.0931 0.31887 0.40021 0.45989 0.6824 0.35102 0.70241 0.46386 0.78676 0.79266 0.59253l0.25734-0.15201-0.0609 0.20054c-0.0616 0.20279-0.36999 0.75087-0.42255 0.75087-0.0157 0-0.0792 0.0186-0.14126 0.0414-0.062 0.0228-0.15591 0.0133-0.20866-0.0212zm1.6357-2.1195c-0.15088-0.16672-0.1861-0.49555-0.0723-0.67486 0.0537-0.0846 0.12507-0.0785 0.34059 0.029 0.2191 0.1093 0.26197 0.1719 0.21825 0.31871-0.0299 0.10047-0.11951 0.2507-0.19907 0.33384-0.1388 0.14504-0.15044 0.14477-0.28749-7e-3zm17.373-0.9975c-1.6001-0.25012-4.9776-1.5281-6.9612-2.634l-0.57928-0.32297-0.18272 0.24921c-0.10049 0.13706-0.29984 0.3806-0.44299 0.54119-0.2294 0.25733-0.28797 0.28274-0.49368 0.21417-0.51648-0.17216-1.405-1.1012-1.405-1.4691 0-0.0565 0.20929 0.0885 0.4651 0.32228 0.2558 0.23379 0.60554 0.47142 0.77719 0.52807 0.30715 0.10137 0.31622 0.0978 0.57207-0.22301 0.14299-0.1793 0.34015-0.42003 0.43815-0.53495l0.17818-0.20894 0.5441 0.34363c1.1245 0.71016 2.533 1.312 4.6875 2.0031 1.3292 0.42631 1.8141 0.53166 2.794 0.60699 0.93193 0.0717 1.5877 0.19192 1.6569 0.30388 0.0319 0.0516 0.0392 0.16589 0.0162 0.25387-0.0367 0.14033-0.12111 0.15878-0.68812 0.15034-0.35546-5e-3 -0.97481-0.061-1.3763-0.12373zm-11.317-3.8179c-0.236-0.11631-0.31068-0.12038-0.48612-0.0265-0.25127 0.13448-0.43688 0.0636-1.0796-0.41221-0.56017-0.41471-0.8906-0.74542-1.1735-1.1744-0.13467-0.20424-0.41582-0.44948-0.70496-0.61491-0.50821-0.29077-0.63766-0.45825-0.47777-0.61815 0.19679-0.19678 1.1867 0.53043 1.3668 1.0041 0.0777 0.20444 1.3176 1.1802 1.6698 1.3141 0.11777 0.0448 0.27032 0.0366 0.39735-0.0213 0.1587-0.0723 0.28051-0.0652 0.52883 0.0309 0.1975 0.0764 0.40473 0.10046 0.5343 0.062 0.40576-0.12035 0.508-0.0929 0.508 0.13632 0 0.16643-0.0674 0.24414-0.29361 0.33867-0.36718 0.15341-0.44421 0.1516-0.78954-0.0186zm25.873-0.89589c-0.28497-0.22428-1.2001-1.401-1.5302-1.9675-0.98393-1.6889-1.477-2.4737-1.8144-2.8879-0.40695-0.49957-0.38681-0.57517 0.0647-0.24278 0.65807 0.48445 1.1209 1.1162 2.1996 3.0026 0.3861 0.67522 0.84112 1.3991 1.0111 1.6087s0.3375 0.42862 0.37218 0.48683c0.0827 0.13882-0.12666 0.13882-0.30304 0zm-30.516-1.1883c-0.41707-0.23824-0.79612-0.86828-0.79107-1.3148 2e-3 -0.21259 9e-3 -0.21635 0.0979-0.058 0.23209 0.41243 0.63072 0.83545 0.88898 0.94336 0.29288 0.12238 0.35115 0.26454 0.17899 0.4367-0.12339 0.1234-0.14686 0.12294-0.37476-7e-3zm-3.757-1.6574c0-0.30031 1.0995-0.63317 2.1167-0.64079l0.80434-6e-3 0.0274 0.23915c0.0256 0.22371 0.0152 0.2326-0.16206 0.13775-0.23125-0.12376-1.1941-0.0511-1.912 0.14424-0.77344 0.21048-0.87432 0.22499-0.87432 0.12568zm2.2271-4.9451c-0.23981-0.57165-0.36534-1.0557-0.35643-1.3744 6e-3 -0.22266 0.0202-0.20699 0.11343 0.127 0.0869 0.31143 0.34587 0.98309 0.61203 1.5875 0.0256 0.0582-5e-3 0.10518-0.0683 0.10438-0.0632-7.6e-4 -0.19854-0.20082-0.30075-0.4445zm24.124 0.14534c-0.16219-0.1136-0.18892-0.20947-0.18892-0.67733 0-0.54347 1e-3 -0.54574 0.35983-0.80807 0.19791-0.14469 0.55033-0.34832 0.78317-0.45251 0.52331-0.23418 0.67076-0.40148 0.6005-0.68138-0.0385-0.15358-0.0194-0.21277 0.0687-0.21277 0.16407 0 0.64311 0.40994 0.64311 0.55034 0 0.1555-0.48702 0.55033-0.67883 0.55033-0.0868 0-0.18173 0.0386-0.21092 0.0859-0.0292 0.0472-0.19337 0.16005-0.36482 0.25072-0.55753 0.2948-0.56347 0.30362-0.6081 0.90241-0.0233 0.31242-0.0811 0.58078-0.12857 0.59637-0.0474 0.0156-0.17127-0.0312-0.27517-0.10399zm0.50414-3.26c-0.20847-0.0836-0.20229-0.11233 0.11721-0.54568 0.10298-0.1397 0.32291-0.5256 0.48871-0.85755l0.30145-0.60354-0.0334-1.5555c-0.0348-1.6236-0.13251-2.135-0.53956-2.825-0.086-0.1457-0.20415-0.47212-0.26263-0.72537-0.0585-0.25326-0.24975-0.68906-0.42501-0.96846-0.38376-0.61179-1.2713-2.9588-1.2712-3.3617 0-0.07942 0.0953-0.28476 0.21168-0.45632 0.2768-0.40788 0.26705-0.6758-0.0423-1.1636-0.1397-0.22028-0.254-0.47314-0.254-0.56191 0-0.08877-0.0343-0.18258-0.0762-0.20846-0.0419-0.02589-0.12052-0.24721-0.17473-0.49183-0.0542-0.24462-0.14967-0.59716-0.21213-0.78343-0.0625-0.18627-0.13542-0.43729-0.16213-0.55783-0.0267-0.12054-0.18231-0.34914-0.3458-0.508-0.16349-0.15886-0.29766-0.37323-0.29816-0.47639-8.4e-4 -0.10316-0.11519-0.31774-0.25489-0.47684-0.18569-0.21149-0.254-0.37472-0.254-0.60696 0-0.17472-0.0427-0.46025-0.0949-0.63453-0.0844-0.28173-0.0736-0.34576 0.0978-0.5775 0.18109-0.24494 0.18946-0.31357 0.13895-1.1391-0.11799-1.9284-0.73848-2.9444-2.0819-3.4087-0.21354-0.0738-0.52916-0.20791-0.70136-0.29802-0.38963-0.20388-0.4826-0.20391-0.93346-3.56e-4 -0.31218 0.14094-0.62625 0.25321-1.3666 0.48848-0.13503 0.04291-0.14485 0.02601-0.0682-0.1173 0.10825-0.20228 0.95783-0.66355 1.3689-0.74325 0.16298-0.0316 0.45486-0.13861 0.64863-0.23779 0.36114-0.18487 0.44175-0.17534 0.87537 0.10347 0.0698 0.04491 0.34279 0.14055 0.60654 0.21253 0.55062 0.15026 1.2327 0.64802 1.5546 1.1345 0.3185 0.48129 0.55283 1.388 0.60742 2.3504 0.0447 0.7879 0.0329 0.88481-0.14682 1.2045-0.16579 0.29498-0.18038 0.3807-0.0963 0.56532 0.0545 0.11969 0.0992 0.40806 0.0992 0.64081 0 0.33852 0.0423 0.46555 0.21166 0.63486 0.12859 0.12858 0.21167 0.30817 0.21167 0.45751 0 0.18147 0.0776 0.30503 0.29633 0.47187 0.16299 0.12431 0.29634 0.27917 0.29634 0.34412 0 0.06496 0.044 0.20331 0.0979 0.30745 0.0538 0.10414 0.1345 0.26265 0.17924 0.35223 0.0448 0.08959 0.14981 0.43249 0.23348 0.762 0.2 0.78776 0.39124 1.2936 0.59985 1.5865 0.0935 0.13125 0.18796 0.36283 0.21 0.51461 0.039 0.26833-0.0139 0.40446-0.32944 0.8484-0.14785 0.20802-0.14584 0.23303 0.074 0.92136 0.45264 1.417 0.807 2.2723 1.17 2.8242 0.15316 0.23283 0.32969 0.63288 0.39229 0.889s0.21566 0.67522 0.34011 0.93133c0.44706 0.92002 0.49623 1.2007 0.51895 2.9633l0.0213 1.651-0.35685 0.62556c-0.19627 0.34405-0.35685 0.65125-0.35685 0.68266 0 0.0883-0.46487 0.51279-0.55497 0.50674-0.044-3e-3 -0.16821-0.0407-0.27597-0.084zm-7.2536-4.4802c-0.0834-0.18489-0.22251-0.40034-0.30919-0.47879-0.17991-0.16282-0.20892-0.37039-0.0518-0.37038 0.2012 5e-6 0.8857 1.0122 0.76568 1.1323-0.12626 0.12626-0.26338 0.0303-0.40472-0.28308zm-2.4988-3.3045c-0.0498-0.09313-0.0677-0.16933-0.0397-0.16933 0.11262 0 0.37841 0.1805 0.37841 0.25698 0 0.14855-0.24639 0.08478-0.33867-0.08765zm-1.3123-0.59267c-0.1397-0.09252-0.19685-0.16762-0.127-0.16689 0.14041 0.0015 0.60108 0.33167 0.46567 0.33378-0.0466 7.62e-4 -0.19897-0.07437-0.33867-0.16689zm-0.52827-0.27517c-0.0458-0.05821-0.1067-0.28519-0.13525-0.5044-0.0285-0.21921-0.1312-0.63388-0.22808-0.92149-0.17302-0.51361-0.17304-0.75428-6e-5 -0.75428 0.048 0 0.0873 0.05582 0.0873 0.12404 0 0.06822 0.061 0.3038 0.13562 0.52351 0.0746 0.21971 0.16644 0.61156 0.20411 0.87079 0.0377 0.25923 0.095 0.538 0.12743 0.61949 0.0677 0.1702-0.0669 0.20003-0.1911 0.04233zm1.7061-1.307c-0.0267-0.08444-0.0836-0.24105-0.12641-0.34802-0.1136-0.28405-0.0954-0.44052 0.0513-0.44052 0.22775 0 0.40784 0.76646 0.20896 0.88937-0.0469 0.02898-0.10714-0.01639-0.13388-0.10084zm-0.12222-1.4306c-0.0457-0.12032-0.0612-0.25437-0.0343-0.29788 0.0269-0.04351-0.03-0.20673-0.12639-0.36272-0.17939-0.29026-0.23456-0.64463-0.10035-0.64463 0.1214 0 0.37374 0.43936 0.43694 0.76077 0.0322 0.16366 0.0867 0.40234 0.12116 0.5304 0.0497 0.18453 0.034 0.23283-0.0756 0.23283-0.0761 0-0.17571-0.09845-0.22146-0.21877zm-14.983-0.54588c0-0.10913 0.24123-0.20768 0.31871-0.1302 0.0316 0.03157 1e-3 0.09284-0.0672 0.13616-0.16389 0.10365-0.25155 0.10157-0.25155-6e-3zm0.86779-0.52651c0.0194-0.05821 0.10707-0.11975 0.19486-0.13676 0.1381-0.02676 0.14433-0.01249 0.0461 0.10583-0.1343 0.16182-0.29126 0.18197-0.24098 0.03093zm1.2489-0.86284c0-0.02053 0.0381-0.06088 0.0847-0.08966s0.0847-0.01198 0.0847 0.03734-0.0381 0.08966-0.0847 0.08966-0.0847-0.0168-0.0847-0.03734zm12.556-0.52408c-0.17695-0.21564-0.47412-0.55364-0.66038-0.75111-0.18627-0.19747-0.38136-0.41156-0.43353-0.47575-0.0522-0.0642-0.27368-0.26352-0.49223-0.44294s-0.37861-0.34497-0.35569-0.36789c0.0229-0.02292 0.16822-0.0147 0.32289 0.01827 0.19444 0.04144 0.46238 0.24642 0.86825 0.66422 0.86022 0.8855 1.3374 1.4898 1.2848 1.627-0.0768 0.2001-0.1971 0.13886-0.53408-0.27183zm-19.653-1.0656c-0.1415-0.14151-0.12501-0.45247 0.0647-1.2198 0.17895-0.72378 0.32027-0.89852 1.338-1.6544 0.34201-0.23583 0.52977-0.61656 0.82767-0.81666 0.3298-0.21845 0.41587-0.24146 0.61791-0.1652 0.20001 0.0755 0.32033 0.04611 0.81342-0.19868 0.31828-0.158 0.86889-0.53521 1.2236-0.83823 1.0698-0.91398 1.5308-1.2306 2.56-1.7586 0.54105-0.27754 1.0577-0.5786 1.1481-0.66903 0.0904-0.09043 0.24053-0.21925 0.33357-0.28627 0.093-0.06702 0.28829-0.33141 0.43393-0.58753 0.30282-0.53255 0.72917-0.96836 1.0376-1.0606 0.11642-0.03483 0.30253-0.13428 0.41359-0.22101 0.28273-0.2208 0.37643-0.19817 0.31119 0.07515-0.0579 0.24267-0.51595 0.69227-0.70926 0.69622-0.22072 0.0045-0.69444 0.45208-1.0192 0.963-0.44316 0.69705-0.8178 1.009-1.8749 1.5614-0.9175 0.47943-1.8303 1.1159-2.6025 1.8145-0.64082 0.57978-1.3982 0.94447-1.8212 0.87684-0.27551-0.04406-0.37314-0.01721-0.58471 0.16082-0.13969 0.11754-0.28659 0.21371-0.32644 0.21371-0.0399 0-0.0965 0.07561-0.1258 0.16802-0.0293 0.09241-0.34622 0.39472-0.70421 0.67179-0.66154 0.51202-0.94721 0.86788-0.94721 1.1799 0 0.17168-0.22542 1.1125-0.27952 1.1666-0.0154 0.01546-0.0732-0.01698-0.12829-0.07208zm20.048-0.82176c-0.4382-0.08586-0.47593-0.12853-0.53196-0.60165-0.0593-0.50108-0.29601-0.82554-0.88813-1.2176-0.4441-0.29407-0.85681-0.71493-0.86055-0.87755-1e-3 -0.05936-0.1005-0.1452-0.22031-0.19075-0.28572-0.10863-0.2441-0.36911 0.0647-0.4049 0.15891-0.01842 0.25407 0.02543 0.31918 0.14709 0.14229 0.26587 0.68703 0.81613 1.0375 1.048 0.50726 0.3356 0.73527 0.66644 0.80696 1.1709 0.0616 0.43371 0.0828 0.46388 0.46613 0.66596 0.5919 0.31198 0.52547 0.40144-0.19348 0.26056zm-3.1044-4.0589c-0.24216-0.08367-0.60073-0.2634-0.79684-0.3994-0.32165-0.22306-0.43527-0.25019-1.1604-0.27706-0.52448-0.01944-1.0739 0.02103-1.5807 0.11644-0.88207 0.16604-1.0523 0.12464-1.2774-0.31056-0.16697-0.32288-0.0483-0.48925 0.17385-0.24376 0.17296 0.19111 0.79185 0.23696 1.1843 0.08773 0.12094-0.04598 0.65767-0.10328 1.1928-0.12734 1.0657-0.04791 1.1326-0.03083 1.9702 0.50301 0.36564 0.23304 0.56961 0.29847 1.0795 0.34625 0.34577 0.0324 0.62868 0.09156 0.62868 0.13146 0 0.11745-0.4797 0.33112-0.73663 0.32813-0.13038-0.0015-0.43517-0.07122-0.67732-0.15489zm-5.4864-3.0597c0.0288-0.04657 0.0904-0.08467 0.13699-0.08467 0.0466 0 0.0611 0.0381 0.0324 0.08467-0.0288 0.04657-0.0904 0.08467-0.13699 0.08467-0.0466 0-0.0611-0.0381-0.0324-0.08467zm-0.29633-0.7563c0-0.40461 0.58365-0.66606 1.1853-0.53096 0.20791 0.04668 0.29634 0.11327 0.29634 0.22317 0 0.23708-0.25708 0.36734-0.46665 0.23646-0.13892-0.08676-0.21424-0.08469-0.40247 0.01106-0.46531 0.23669-0.61255 0.25118-0.61255 0.06028z"/>
     <path d="m338.7 147.72c-0.4191-0.0101-1.2954-0.0797-1.9473-0.15466-0.9888-0.1137-1.9961-0.13172-6.0755-0.10865l-4.8902 0.0276-0.16137-0.34339c-0.2416-0.5141-0.75139-0.93305-1.2709-1.0445-0.24055-0.0516-0.99772-0.0938-1.6826-0.0938-0.68488 0-1.3783-0.0393-1.541-0.0873-0.16267-0.048-0.92442-0.12639-1.6928-0.1742-2.0634-0.12839-2.0153-0.11421-2.3235-0.68405-0.28134-0.52018-0.47953-0.70689-1.0632-1.0016-0.20955-0.1058-0.50605-0.30146-0.6589-0.43479s-0.7434-0.46692-1.3123-0.74131c-0.94944-0.45791-1.0569-0.53382-1.308-0.92392-0.15043-0.23376-0.32062-0.53322-0.3782-0.66546-0.19177-0.44045-0.92147-1.4589-1.0817-1.5097-0.092-0.0292-0.21344-0.2127-0.29058-0.43911l-0.13253-0.38895 0.45656 0.0537c0.69223 0.0814 1.084 0.38232 1.496 1.1493 0.45121 0.83992 0.64827 1.0343 1.375 1.356 0.33383 0.1478 0.66412 0.30401 0.73397 0.34715 0.0698 0.0431 0.26478 0.1532 0.43319 0.2446s0.41606 0.25804 0.55034 0.37031c0.13427 0.11228 0.40449 0.28553 0.6005 0.385 0.46359 0.23527 0.76694 0.56716 0.8896 0.97329 0.0573 0.18955 0.17185 0.35571 0.27302 0.39585 0.21905 0.0869 2.3229 0.26759 2.4196 0.2078 0.0393-0.0243 0.40294 0.0136 0.80803 0.0842 0.43083 0.0751 1.2502 0.12864 1.9743 0.12891 1.7944 6.8e-4 2.2134 0.16547 2.6578 1.0454 0.24077 0.4767 0.26032 0.49339 0.51575 0.44029 0.49703-0.10332 9.7016-0.0495 10.341 0.0604 1.116 0.19197 21.669 0.0355 22.023-0.16765 0.20152-0.11556 1.0485-1.0188 1.0485-1.1181 0-0.12658 0.98459-0.82474 1.5534-1.1015 0.97828-0.47597 1.9246-0.78923 3.3573-1.1113 0.39582-0.089 0.98637-0.23881 1.3123-0.33294 0.32597-0.0941 1.0689-0.2847 1.651-0.42351 1.4183-0.33822 2.405-0.65303 2.9197-0.93147 0.23385-0.12652 0.50126-0.25217 0.59424-0.27923 0.093-0.0271 0.44512-0.12942 0.78252-0.22747 0.52445-0.15242 0.63363-0.2177 0.75255-0.44998 0.19558-0.38202 0.78735-1.076 0.91751-1.076 0.0598 0 0.15689-0.058 0.21573-0.12891 0.0648-0.0781 0.17264-0.10808 0.27352-0.0761 0.14512 0.0461 0.45129-0.0645 1.0996-0.39696 0.20954-0.10746 0.40213-0.0932 0.41042 0.0304 4e-3 0.0582 0.0244 0.2932 0.0456 0.5222l0.0385 0.41637-0.66265 0.64856c-0.36447 0.35671-0.80313 0.86019-0.97481 1.1188-0.29919 0.45075-0.33595 0.47614-0.88574 0.61192-0.31547 0.0779-0.84029 0.27001-1.1662 0.42688-1.0716 0.51573-1.4174 0.62987-2.9633 0.97841-0.37253 0.084-0.96308 0.23148-1.3123 0.32776-0.34925 0.0963-1.1494 0.30581-1.778 0.4656-1.8634 0.47365-2.0618 0.53106-2.6743 0.77378-1.4633 0.57992-1.8828 0.85255-2.8761 1.8691-0.82266 0.84195-0.97778 0.96447-1.2303 0.97178-0.15895 5e-3 -2.4036 0.0248-4.988 0.045-2.5844 0.0201-5.9563 0.0546-7.493 0.0765-4.4032 0.0629-6.88 0.0833-7.7047 0.0635zm11.98-9.5921c-0.10424-0.0649-0.10788-0.10877-0.0207-0.24947 0.0582-0.0939 0.10584-0.2147 0.10584-0.26839 0-0.0537 0.1143-0.28337 0.254-0.51042 0.29885-0.4857 0.31257-0.57959 0.0847-0.57959-0.21303 0-0.21194-0.018 0.0302-0.49552 0.10972-0.21641 0.30975-0.61993 0.4445-0.89671 0.27737-0.5697 1.4681-2.7908 1.6631-3.1022 0.0705-0.11253 0.15281-0.31092 0.18299-0.44088 0.0314-0.13507 0.0931-0.21269 0.14409-0.18118 0.14136 0.0874 0.41384 0.78772 0.41384 1.0637 0 0.25191-0.17948 0.68256-0.38349 0.9201-0.06 0.0699-0.39619 0.68541-0.74712 1.3679-0.35094 0.6825-0.81161 1.57-1.0237 1.9721-0.21212 0.40217-0.38567 0.78794-0.38567 0.85725 0 0.0693-0.0667 0.14858-0.14817 0.17614-0.0815 0.0276-0.22458 0.13915-0.31798 0.24796-0.1227 0.14295-0.20492 0.17601-0.29633 0.11915zm-2.5818-1.5232c0.0843-0.0931 0.17229-0.16934 0.19558-0.16934 0.0233 0-0.0266 0.0762-0.11092 0.16934-0.0843 0.0931-0.17229 0.16933-0.19558 0.16933-0.0233 0 0.0266-0.0762 0.11092-0.16933zm0.635-1.0974c0-0.12953 0.42684-0.79003 0.47768-0.73919 0.053 0.053-0.27604 0.70591-0.39181 0.77746-0.0472 0.0292-0.0859 0.012-0.0859-0.0383zm16.873-3.0367c-0.16526-0.1381-0.33976-0.4136-0.44766-0.70679-0.0972-0.26427-0.2704-0.61839-0.38479-0.78693-0.11437-0.16855-0.20796-0.34184-0.20796-0.38509 0-0.0433-0.0726-0.24159-0.16141-0.44074-0.15109-0.33896-0.35987-1.4534-0.36126-1.9283 0-0.11637-0.13636-0.45431-0.30226-0.75098l-0.30165-0.53939-8e-3 -1.5169c-6e-3 -1.1946 0.0163-1.532 0.10697-1.5881 0.0848-0.0525 0.10071-0.18011 0.0603-0.48381-0.0302-0.22691-0.0555-0.54522-0.0563-0.70736-8.4e-4 -0.16215-0.0519-0.35265-0.11352-0.42334-0.0891-0.10218-0.1273-0.90073-0.0564-1.1771 0.0253-0.0987 0.34703 0.42484 0.34703 0.56474 0 0.0917 0.0602 0.21675 0.13381 0.27783 0.081 0.0672 0.11829 0.19221 0.0945 0.3165-0.0216 0.113 0.0552 0.51317 0.17073 0.88928 0.19024 0.61945 0.19728 0.69314 0.0748 0.7827-0.15788 0.11545-0.17521 0.39759-0.0399 0.65035 0.0547 0.1022 0.10457 0.70377 0.11711 1.4126 0.0351 1.9852 0.0763 2.385 0.28044 2.722 0.30675 0.50629 0.52318 1.2558 0.52318 1.8117 0 0.32693 0.0463 0.58209 0.12431 0.68524 0.0684 0.0904 0.12552 0.2416 0.127 0.33601 1e-3 0.0944 0.0552 0.24682 0.11945 0.33867 0.18992 0.27168 0.48629 0.81984 0.45835 0.84779-0.0142 0.0142-0.14773-0.076-0.2967-0.20047zm-13.997-5.2428c-0.10807-0.28554-0.20107-0.76688-0.22494-1.1642l-0.0407-0.67734 0.53635-0.55957c2.0067-2.0935 2.6012-2.7958 3.2256-3.8108 0.20969-0.3408 0.62209-1.4979 0.73574-2.0643 0.17842-0.88922 0.45391-1.651 0.59706-1.651 0.10588 0 0.30877 0.10626 0.57671 0.30206 0.0147 0.0108-0.087 0.35676-0.22607 0.76891-0.13906 0.41215-0.27749 0.93986-0.30761 1.1727-0.0582 0.45002-0.33976 1.2508-0.68459 1.9473-0.33322 0.67304-0.86594 1.3764-1.6989 2.243-0.42559 0.44277-1.1258 1.1848-1.5559 1.6491l-0.78213 0.84406 0.0561 0.74344c0.0309 0.4089 0.0384 0.74345 0.0168 0.74345s-0.12221-0.21908-0.22355-0.48684zm-28.374-4.826c-0.14712-0.31432-0.38082-0.6858-0.51935-0.8255-0.15828-0.15961-0.35598-0.54405-0.53203-1.0346-0.16234-0.4523-0.42208-0.96857-0.61765-1.2277-0.40579-0.53758-0.54768-0.87588-0.44462-1.06 0.0639-0.11415 0.0908-0.10382 0.18294 0.0702 0.0594 0.11222 0.23153 0.35643 0.38245 0.5427s0.31484 0.47202 0.36426 0.635c0.25834 0.85184 0.44139 1.2543 0.68486 1.5056 0.14808 0.1529 0.3576 0.46873 0.46562 0.70186 0.23936 0.51665 0.446 0.75582 0.653 0.75582 0.17838 0 0.21186 0.24915 0.0546 0.4064-0.22937 0.22938-0.40368 0.10787-0.67409-0.4699zm39.868-1.6619c-0.12692-0.11762-0.23076-0.29314-0.23076-0.39005 0-0.0969-0.13763-0.31382-0.30583-0.48203-0.26989-0.26989-0.30076-0.34357-0.26275-0.62698 0.0329-0.24542 5e-3 -0.35552-0.11802-0.46694-0.0886-0.0802-0.14412-0.16278-0.12335-0.18355 0.0208-0.0208 0.16797 0.0901 0.32712 0.24642 0.31101 0.30546 0.52189 0.71085 0.59967 1.1528 0.0267 0.15177 0.13006 0.38617 0.22968 0.5209 0.2521 0.34098 0.17324 0.49727-0.11576 0.22943zm-37.933 3e-3c-0.024-0.0624-0.0155-0.15897 0.0189-0.21453 0.0869-0.14056 0.36642-0.0186 0.30776 0.13423-0.026 0.0677-0.0472 0.13893-0.0472 0.1584 0 0.0899-0.2408 0.0226-0.27944-0.0781zm17.551-0.86014c-1.1912-0.2066-1.3125-0.23593-1.6265-0.39309-0.17277-0.0865-0.37656-0.15726-0.45287-0.15726-0.0763 0-0.2588-0.0516-0.40554-0.11474-0.14674-0.0631-0.45729-0.17511-0.69013-0.24889-1.3231-0.41927-2.6693-1.0309-3.7677-1.7118-0.62733-0.38888-0.87226-0.38407-1.1328 0.0222-0.5063 0.78947-0.66886 0.81643-1.3052 0.21652l-0.39835-0.37558 0.33715 0.21712c0.54468 0.35074 0.79944 0.29954 1.2368-0.24856 0.20437-0.25612 0.40763-0.46567 0.45169-0.46567 0.0441 0 0.16122 0.0762 0.26035 0.16932 0.21778 0.2046 2.1473 1.1845 2.3333 1.185 0.0726 1.7e-4 0.20594 0.0563 0.29634 0.12466 0.0904 0.0684 0.22149 0.12681 0.29134 0.12987 0.0698 3e-3 0.2794 0.0792 0.46567 0.16915 0.18627 0.09 0.39582 0.16488 0.46567 0.16645 0.13871 3e-3 1.065 0.29823 1.5009 0.47816 0.48437 0.19996 1.3222 0.3596 2.3601 0.44973 1.3519 0.11739 1.572 0.16531 1.5396 0.33522-0.0343 0.18006-0.87825 0.20506-1.76 0.0521zm-21.687-2.3707c-0.0279-0.0466-0.0728-0.27516-0.0997-0.508l-0.049-0.42333 0.1243 0.381c0.11755 0.36032 0.13405 0.73345 0.0244 0.55033zm-0.272-1.3675c-0.0261-0.13266-0.067-0.4698-0.0909-0.7492-0.0323-0.37806-0.0241-0.44303 0.0323-0.254 0.15728 0.52767 0.2438 1.1033 0.17625 1.1725-0.0386 0.0395-0.0915-0.0367-0.11761-0.16933zm10.585-0.0819c-0.17283-0.0938-0.35421-0.11509-0.64292-0.0754-0.39471 0.0543-0.414 0.0459-1.0418-0.45301-0.86902-0.69057-0.89927-0.79223-0.0672-0.22562 0.6792 0.46249 1.0483 0.5738 1.2463 0.37583 0.0661-0.066 0.16913-0.0519 0.36675 0.0503 0.19899 0.1029 0.37679 0.12686 0.64402 0.0868 0.30341-0.0455 0.36068-0.0333 0.32166 0.0684-0.0261 0.0681-0.11152 0.14222-0.1898 0.16481-0.0783 0.0226-0.19945 0.063-0.2693 0.0899-0.0699 0.0268-0.23534-0.01-0.36776-0.0819zm-10.882-1.514c-0.0631-0.18627-0.16288-0.4157-0.22166-0.50985-0.0588-0.0942-0.13004-0.3418-0.15837-0.55033-0.0513-0.37742-0.0501-0.37632 0.2482 0.24087 0.19707 0.4077 0.29062 0.71213 0.27317 0.889l-0.0265 0.26898zm35.616-0.6985c-0.3121-0.47147-1.2941-2.1264-1.7458-2.9422-0.0258-0.0466 0.0199-0.0304 0.10162 0.0359 0.1296 0.10522 0.60811 0.76198 0.85767 1.1772 0.0466 0.0775 0.14577 0.23628 0.22047 0.3529 0.0747 0.11661 0.31336 0.5454 0.5304 0.95286 0.39963 0.75025 0.42114 1.0057 0.0357 0.42333zm-29.663-0.0768c-0.11465-0.12371-0.19383-0.23956-0.17596-0.25744 0.0518-0.0518 0.64652 0.32171 0.64652 0.40608 0 0.15449-0.26811 0.0698-0.47056-0.14864zm1.4983 0.0528c-0.10993-0.0916-0.24814-0.16652-0.30713-0.16652-0.13944 0-0.32677-0.2258-0.23459-0.28277 0.0785-0.0485 0.80966 0.41506 0.85449 0.54171 0.0457 0.12901-0.0979 0.0866-0.31277-0.0924zm-3.8218-1.8651c0.31469-0.14015 1.4867-0.20833 1.5594-0.0907 0.0419 0.0679-0.10944 0.0962-0.5172 0.0969-0.31707 5.1e-4 -0.7289 0.0206-0.91516 0.0445-0.30192 0.0389-0.31571 0.0334-0.127-0.0507zm25.129-4.4899c-0.10427-0.0584-0.14031-0.19884-0.14031-0.54693 0-0.45971 7e-3 -0.47384 0.39612-0.76068 0.21786-0.16075 0.54125-0.33731 0.71863-0.39234 0.29764-0.0923 0.66351-0.42021 0.75991-0.68096 0.0303-0.082 0.0791-0.0719 0.19716 0.0408 0.19234 0.18361 0.0956 0.38358-0.27195 0.56242-0.1351 0.0657-0.30278 0.15106-0.37263 0.18962-0.0698 0.0386-0.26591 0.14545-0.43567 0.23754-0.50241 0.27253-0.58033 0.39252-0.58033 0.89372 0 0.49043-0.0526 0.57903-0.27093 0.45682zm0.52493-3.2821c0-0.0399 0.19288-0.40771 0.42862-0.81739 0.51766-0.89961 0.63682-1.4203 0.49838-2.1777-0.0568-0.31061-0.0741-0.79717-0.0417-1.1732 0.0589-0.68429-0.0736-1.238-0.5046-2.1092-0.10366-0.20955-0.24004-0.59055-0.30304-0.84667-0.063-0.25612-0.23264-0.63712-0.37696-0.84667-0.26125-0.37933-0.77041-1.61-1.1445-2.7663-0.164-0.5069-0.17816-0.62935-0.0856-0.74083 0.17234-0.20766 0.23885-0.16232 0.3319 0.22627 0.25086 1.0476 0.98061 2.8736 1.3363 3.3438 0.11427 0.15106 0.27737 0.53978 0.36244 0.86381 0.0851 0.32404 0.23024 0.71723 0.32261 0.87378 0.41506 0.70348 0.52344 1.2867 0.54649 2.9408l0.0218 1.5663-0.27212 0.46566c-0.14966 0.25612-0.31303 0.56092-0.36303 0.67734-0.13112 0.3053-0.42321 0.59266-0.60239 0.59266-0.085 0-0.15457-0.0326-0.15457-0.0725zm-1.1619-12.089c0.0512-0.25592-0.17199-0.887-0.35331-0.99906-0.0514-0.03178-0.0935-0.1423-0.0935-0.24561 0-0.10331-0.0518-0.26298-0.1151-0.35484-0.0633-0.09185-0.16328-0.37656-0.22217-0.63267-0.0589-0.25612-0.13735-0.56092-0.17435-0.67733-0.037-0.11642-0.0918-0.32296-0.12175-0.45898-0.03-0.13602-0.1283-0.34119-0.21855-0.45592-0.0902-0.11473-0.16408-0.2431-0.16408-0.28528 0-0.08937-0.28147-0.50126-0.61383-0.89827-0.17883-0.2136-0.23284-0.3671-0.23284-0.66173 0-0.21099-0.0418-0.46176-0.0929-0.55726-0.0728-0.13595-0.0637-0.20287 0.0417-0.3083 0.21471-0.21471 0.34496 0.0013 0.34758 0.57652 2e-3 0.4211 0.0374 0.53818 0.2237 0.73772 0.12177 0.13045 0.24713 0.38178 0.27856 0.55851 0.0417 0.23426 0.11326 0.34266 0.26425 0.40007 0.14242 0.05415 0.20711 0.14396 0.20711 0.28751 0 0.11482 0.0342 0.22987 0.0759 0.25567 0.14289 0.08831 0.41135 0.69034 0.47449 1.0641 0.0744 0.44016 0.4335 1.4268 0.58544 1.6084 0.0585 0.06985 0.15366 0.24691 0.21157 0.39347 0.088 0.22266 0.0834 0.30878-0.0278 0.5238-0.19227 0.3718-0.34249 0.44128-0.28015 0.12958zm-9.7577-2.3982c-0.0685-0.04332-0.1025-0.10081-0.0756-0.12775s0.0972 0.0091 0.15607 0.08006c0.12214 0.14717 0.0987 0.16104-0.0805 0.04769zm-19.103-0.80007c0.0244-0.18225 0.0838-0.37084 0.13203-0.4191 0.13985-0.13986 0.10175 0.2943-0.0473 0.53879-0.12744 0.20905-0.12848 0.20757-0.0847-0.11969zm18.206-0.08928c-0.13807-0.10443-0.14232-0.12474-0.0265-0.127 0.0758-0.0015 0.18522 0.05446 0.24319 0.12431 0.1351 0.16278-3e-3 0.16449-0.21665 0.0027zm1.529-0.46836c-0.0288-0.04657-0.0142-0.08467 0.0323-0.08467 0.0466 0 0.10821 0.0381 0.13699 0.08467 0.0288 0.04657 0.0142 0.08467-0.0323 0.08467-0.0466 0-0.10822-0.0381-0.13699-0.08467zm-19.513-0.40406c-3e-3 -0.2438 0.55679-0.85733 1.1026-1.2076 0.7141-0.45823 0.63897-0.22916-0.12282 0.37454-0.40068 0.31752-0.72851 0.60419-0.72851 0.63704 0 0.03285-0.0559 0.13368-0.12431 0.22407-0.12108 0.16008-0.12437 0.15936-0.127-0.02804zm19.09-0.78031c-0.0297-0.04799 4e-3 -0.06219 0.0797-0.03327 0.14667 0.05629 0.1735 0.11697 0.0517 0.11697-0.0438 0-0.10295-0.03766-0.1314-0.0837zm-0.55093-0.46664c-0.058-0.06985-0.15469-0.127-0.21492-0.127-0.14287 0-0.67108-0.66709-0.58969-0.74474 0.0343-0.03278 0.10563 0.01289 0.15837 0.10149 0.10546 0.17712 0.19141 0.25809 0.67905 0.63968 0.18107 0.1417 0.27143 0.25756 0.20086 0.25756-0.0705 0-0.1757-0.05715-0.23367-0.127zm-15.579-0.89201c0-0.04822 0.16193-0.1643 0.35984-0.25795 0.84848-0.40151 1.0689-0.54954 1.642-1.1026 0.33265-0.32106 0.65469-0.58374 0.71564-0.58374 0.0609 0 0.22694-0.11192 0.36886-0.24872 0.29366-0.28307 1.8168-1.1059 2.0472-1.1059 0.26552 0-0.0216 0.19737-1.1118 0.76437-0.5588 0.29062-1.0732 0.59393-1.143 0.67403-0.0699 0.0801-0.30366 0.26434-0.51957 0.40942-0.21591 0.14508-0.59691 0.45019-0.84666 0.67802-0.41569 0.3792-1.2129 0.86082-1.425 0.86082-0.0481 0-0.0875-0.03945-0.0875-0.08768zm14.332-0.30214c0.0281-0.02813 0.10116-0.03114 0.16228-0.0067 0.0675 0.02703 0.0475 0.04709-0.0512 0.05115-0.0892 0.0037-0.13926-0.01633-0.11112-0.04447zm9.2057-1.2434c0-1.0727-0.39369-2.209-0.96744-2.7923-0.30879-0.31393-1.1972-0.82386-1.4353-0.82386-0.20242 0-0.98373-0.43976-0.93149-0.52429 0.0268-0.04335 0.14751-0.11638 0.26825-0.16229 0.17385-0.0661 0.26534-0.04961 0.43962 0.07925 0.12105 0.08949 0.35193 0.18944 0.51307 0.2221 0.7696 0.15599 1.6138 0.76534 1.9412 1.4012 0.2327 0.4519 0.43554 1.3208 0.4871 2.0867 0.0525 0.7799-6e-3 1.1306-0.18962 1.1306-0.0993 0-0.12538-0.12855-0.12538-0.61721zm-9.9907 0.08039c-0.20955-0.10607-0.53049-0.284-0.7132-0.39539-0.27332-0.16664-0.46089-0.2056-1.0583-0.21986-0.39937-0.0095-1.0119 0.03623-1.3611 0.10169-0.7775 0.14572-1.12 0.15049-1.2531 0.01744-0.1685-0.16849-0.11534-0.22919 0.13726-0.15674 0.22104 0.06339 1.0239-0.01355 1.1859-0.11364 0.0388-0.02398 0.53039-0.0508 1.0924-0.05961l1.0219-0.01601 0.59137 0.39314c0.32525 0.21623 0.68148 0.39356 0.79164 0.39407 0.35849 0.0017 0.83528 0.10412 0.83528 0.17948 0 0.15583-0.88816 0.06872-1.27-0.12456zm-8.128-2.0395c0-0.01996 0.0599-0.09616 0.13305-0.16933 0.19533-0.19533 0.34317-0.16248 0.16328 0.03628-0.13912 0.15373-0.29633 0.22432-0.29633 0.13305zm1.1853-1.4537c0-0.11708 0.47711-0.54201 0.60856-0.54201 0.0637 0 0.20044-0.05931 0.30394-0.1318 0.15937-0.11163 0.18817-0.11312 0.18817-0.0097 0 0.1371-0.27396 0.33849-0.59267 0.43568-0.11641 0.0355-0.27834 0.1231-0.35983 0.19466-0.0815 0.07156-0.14817 0.0955-0.14817 0.05321zm1.524-0.2619c0-0.15277 0.20839-0.28011 0.45841-0.28011 0.22284 0 0.23948 0.0154 0.13124 0.12143-0.15069 0.14759-0.58965 0.26572-0.58965 0.15868zm0.98185-0.01288c-0.0293-0.04741-0.012-0.11169 0.0384-0.14286 0.13018-0.08045 0.21417 0.02975 0.1055 0.13842-0.0608 0.06081-0.10816 0.06227-0.1439 0.0044zm10.052-0.10252c0.17793-0.0962 0.40653-0.16225 0.508-0.14678 0.18124 0.02763 0.18151 0.02977 0.0152 0.12096-0.0931 0.05106-0.32173 0.11711-0.508 0.14678l-0.33866 0.05395z"/>
    </g>
   </g>
   <g letter-spacing="0px" word-spacing="0px">
    <flowRoot transform="matrix(.26458 0 0 .26458 37.57 37.28)" fill="#000000" font-family="'DejaVu Sans'" font-size="53.333px" style="line-height:1.25" xml:space="preserve"><flowRegion font-family="'DejaVu Sans'" font-size="53.333px"><rect x="670" y="171.09" width="375.71" height="148.57"/></flowRegion><flowPara/></flowRoot>
    <g font-family="sans-serif">
     <text transform="scale(1.0127 .98744)" x="214.36884" y="99.847618" fill="#000" font-size="16.861px" font-weight="bold" stroke-width=".26345" style="line-height:1.25" xml:space="preserve"><tspan x="214.36884" y="99.847618">Hart voor</tspan><tspan x="214.36884" y="120.92341">Harmonie</tspan></text>
     <flowRoot transform="matrix(.26458 0 0 .26458 37.57 37.28)" fill="#000000" font-size="40px" style="line-height:1.25" xml:space="preserve"><flowRegion><rect x="713.57" y="368.95" width="92.857" height="41.429"/></flowRegion><flowPara/></flowRoot>
     <flowRoot transform="matrix(.26458 0 0 .26458 37.57 37.28)" fill="#000000" font-size="40px" style="line-height:1.25" xml:space="preserve"><flowRegion><rect x="720.71" y="356.09" width="206.43" height="52.143"/></flowRegion><flowPara/></flowRoot>
     <text x="254.52802" y="138.86647" fill="#f9f9f9" font-size="10.583px" stroke-width=".26458" style="line-height:1.25" xml:space="preserve"><tspan x="254.52802" y="138.86647" fill="#f9f9f9" font-family="'DejaVu Sans'" font-size="6.1736px" font-style="italic" stroke-width=".26458">en paard</tspan></text>
     <text x="219.39194" y="131.27573" fill="#f9f9f9" font-size="10.583px" stroke-width=".26458" style="line-height:1.25" xml:space="preserve"><tspan x="219.39194" y="131.27573" fill="#f9f9f9" font-family="'DejaVu Sans'" font-size="6.1736px" font-style="italic" stroke-width=".26458">Instructie en training voor pony</tspan></text>
    </g>
   </g>
  </g>
 </g>
</svg>
